<svg width="102" height="135" viewBox="0 0 102 135" fill="none" xmlns="http://www.w3.org/2000/svg">
<path d="M28.2672 67.759C28.2672 55.2273 38.4709 45.0235 51.0024 45.0235C63.5337 45.0235 73.7374 55.2273 73.7374 67.759C73.7374 80.2908 63.5337 90.4946 51.0024 90.4946C38.4709 90.4946 28.2672 80.2908 28.2672 67.759ZM70.2402 67.759C70.2402 57.1092 61.652 48.5209 51.0024 48.5209C40.3528 48.5209 31.7644 57.1092 31.7644 67.759C31.7644 78.4088 40.3528 86.9971 51.0024 86.9971C61.652 86.9971 70.2402 78.4088 70.2402 67.759Z" fill="#374146" stroke="#FFECE8" stroke-width="0.7"/>
<path d="M4.83118 42.5641C4.83118 44.8563 6.73694 46.7692 9.02314 46.7692C11.1066 46.7692 11.5457 46.7619 11.7681 46.7583C11.9923 46.7545 11.9961 46.7545 13.2438 46.7692L13.2395 47.1192M13.2395 47.1192C11.993 47.1045 11.9925 47.1045 11.7766 47.1082C11.5608 47.1119 11.1297 47.1192 9.02314 47.1192C6.54255 47.1192 4.48118 45.0485 4.48118 42.5641V42.5556H4.48128C4.51384 41.2072 5.1379 40.0377 5.77352 39.3884C11.5855 33.4507 17.4295 27.5261 23.2741 21.6008C26.1222 18.7135 28.9704 15.826 31.8151 12.9368C38.104 6.54939 46.678 4.44559 53.0367 4.44559H99.2425H99.2469C99.4787 4.44851 99.7082 4.40577 99.9224 4.31934C100.137 4.23283 100.332 4.10426 100.497 3.94147C100.662 3.77875 100.793 3.58506 100.882 3.37151C100.971 3.158 101.017 2.92849 101.017 2.69686C101.017 2.46531 100.971 2.23631 100.882 2.02271C100.793 1.80916 100.662 1.61547 100.497 1.45275C100.332 1.28996 100.137 1.1614 99.9224 1.07489C99.7078 0.988299 99.4782 0.945207 99.2469 0.948098L99.2425 0.948152L53.0367 0.948125C45.8942 0.948125 36.4449 3.24673 29.3226 10.4806L29.0732 10.2351L29.3226 10.4806C26.4704 13.3774 23.6144 16.2728 20.7578 19.1686C14.9224 25.0844 9.0848 31.0023 3.27426 36.9385C2.00965 38.2307 1.0418 40.1578 0.985114 42.4698V42.4925L0.985153 42.4981H0.985108C0.984943 42.5163 0.985013 42.5392 0.985118 42.5625L0.985126 42.5641C0.985122 46.9746 4.61271 50.6167 9.02314 50.6167C11.1083 50.6167 11.5341 50.6094 11.7471 50.6057C11.9604 50.6021 11.9605 50.6021 13.1987 50.6167L13.199 50.6167C15.5712 50.6464 17.4027 49.3095 18.6783 47.9744C20.6826 45.8769 23.2947 43.265 25.4042 41.1791C26.4593 40.1358 27.3892 39.2235 28.0554 38.5719C28.3885 38.2461 28.6557 37.9856 28.8396 37.8064L29.0509 37.6007L29.1057 37.5475L29.1197 37.5339L29.1232 37.5305L29.1241 37.5296L29.1243 37.5294C29.1243 37.5294 29.1244 37.5293 29.1835 37.5902L29.1244 37.5293L29.1295 37.5244L29.1347 37.5197C29.3102 37.3626 29.4521 37.1718 29.552 36.9587C29.6518 36.7456 29.7076 36.5139 29.716 36.2785C29.7244 36.0432 29.6852 35.8088 29.6007 35.589C29.5162 35.369 29.3883 35.1683 29.2246 34.9993C29.0608 34.8302 28.8645 34.6958 28.6476 34.6044C28.4308 34.513 28.1976 34.4665 27.9621 34.4674C27.7269 34.4683 27.4942 34.5169 27.2778 34.61C27.0616 34.7031 26.8664 34.8388 26.704 35.0092L26.6945 35.019L26.4507 34.7676L26.6943 35.0189L26.6941 35.0191L26.6932 35.0199L26.6897 35.0233L26.6759 35.0368L26.6213 35.0898L26.4101 35.2952C26.2262 35.4742 25.9588 35.7349 25.625 36.0611C24.9575 36.7136 24.0246 37.6284 22.9633 38.6776C20.8401 40.7767 18.2051 43.4114 16.1522 45.5599L15.8991 45.3181L16.1521 45.56C15.2161 46.5395 14.3197 47.1323 13.2395 47.1192Z" fill="#FF877A" stroke="#FFECE8" stroke-width="0.7"/>
<path d="M42.6034 33.8276V33.8276H42.599C38.1837 33.8276 34.5629 30.2001 34.5629 25.7827C34.5629 21.3652 38.1837 17.7377 42.599 17.7377L65.6629 17.7378L65.6673 17.7377C65.8987 17.7348 66.1284 17.7779 66.3431 17.8645C66.5579 17.9512 66.7533 18.0793 66.9178 18.2419C67.0824 18.4044 67.2133 18.5986 67.3026 18.8124C67.3919 19.026 67.4379 19.255 67.4379 19.4865C67.4379 19.7179 67.3919 19.9469 67.3026 20.1606C67.2133 20.3744 67.0824 20.5685 66.9178 20.7311C66.7533 20.8936 66.5579 21.0218 66.3431 21.1084C66.1284 21.195 65.8987 21.2381 65.6673 21.2352L65.6673 21.2352H65.6629H42.599C40.0669 21.2352 38.06 23.2457 38.06 25.7827C38.06 28.3197 40.0669 30.3301 42.599 30.3302L42.6034 30.3301C42.8348 30.3272 43.0646 30.3703 43.2793 30.4569C43.4942 30.5436 43.6895 30.6717 43.8541 30.8343C44.0188 30.997 44.1496 31.1907 44.2389 31.4042C44.3281 31.6178 44.3741 31.8473 44.3741 32.0789C44.3741 32.3103 44.3281 32.5393 44.2389 32.753C44.1496 32.9665 44.0188 33.1602 43.8541 33.3229C43.6892 33.4858 43.4938 33.6143 43.2793 33.7008C43.0646 33.7874 42.8348 33.8305 42.6034 33.8276Z" fill="#FF877A" stroke="#FFECE8" stroke-width="0.7"/>
<path d="M99.2468 26.1328H99.2481L99.2527 26.1328L99.255 26.1328C99.4864 26.1313 99.7158 26.1757 99.9297 26.2634C100.144 26.3511 100.338 26.4806 100.502 26.6443C100.666 26.8078 100.795 27.0021 100.883 27.2159C100.971 27.4299 101.016 27.6592 101.015 27.8905C101.014 28.122 100.967 28.3509 100.877 28.5638C100.787 28.7767 100.655 28.9697 100.489 29.1316C100.324 29.2935 100.128 29.4209 99.9135 29.5065C99.6987 29.5921 99.4689 29.6341 99.2374 29.6303L99.2331 29.6302C95.6138 29.6161 93.2877 31.1148 90.5693 32.8663C90.0526 33.1992 89.5218 33.5412 88.9653 33.8837C85.5699 35.9731 81.9504 38.0252 76.8359 38.0252C72.5559 38.0252 69.2442 37.286 66.0729 36.3148L66.0729 36.3148C60.4106 34.5815 53.88 33.8236 42.6362 33.8236L42.6319 33.8236C42.4004 33.8265 42.1707 33.7834 41.956 33.6968C41.7415 33.6103 41.5461 33.4818 41.3813 33.3189C41.2165 33.1562 41.0857 32.9625 40.9965 32.749L40.6755 32.8831L40.9965 32.749C40.9072 32.5353 40.8612 32.3063 40.8612 32.0749C40.8612 31.8433 40.9072 31.6138 40.9965 31.4002L40.6755 31.2661L40.9965 31.4002C41.0857 31.1867 41.2165 30.993 41.3813 30.8303C41.5458 30.6677 41.7412 30.5396 41.956 30.4529C42.1707 30.3663 42.4004 30.3232 42.6319 30.3261L42.6319 30.3261H42.6362C54.0429 30.3261 60.9938 31.0982 67.0975 32.967C70.1119 33.89 72.9354 34.5277 76.8359 34.5277C81.0776 34.5277 83.8005 32.9536 87.1353 30.9014C87.6009 30.6148 88.0699 30.3117 88.5479 30.0027C91.3955 28.1622 94.5625 26.1152 99.2468 26.1328Z" fill="#FF877A" stroke="#FFECE8" stroke-width="0.7"/>
<path d="M72.6365 97.7344C72.8803 97.9855 72.8803 97.9855 72.8804 97.9854L72.8806 97.9852L72.8815 97.9843L72.885 97.9809L72.899 97.9673L72.9537 97.9141L73.165 97.7084C73.349 97.5293 73.6161 97.2687 73.9492 96.9429C74.6154 96.2914 75.5453 95.3791 76.6004 94.3358C78.7098 92.2499 81.3219 89.6381 83.3262 87.5404L83.0732 87.2986L83.3262 87.5404C84.6017 86.2053 86.4334 84.8684 88.8057 84.8981L88.806 84.8981C90.0441 84.9127 90.0442 84.9127 90.2575 84.9091C90.4706 84.9054 90.8963 84.8981 92.9814 84.8981C97.3919 84.8981 101.019 88.5403 101.019 92.9507L101.019 92.9539C101.02 92.975 101.02 92.9979 101.019 93.0165L101.019 93.0224V93.045C100.963 95.357 99.9949 97.2841 98.7305 98.5764C92.9286 104.504 87.0998 110.413 81.273 116.32C78.4077 119.224 75.5428 122.129 72.682 125.034C65.5597 132.268 56.1106 134.567 48.9678 134.567L2.76215 134.567L2.75655 134.567C2.52478 134.57 2.29451 134.528 2.07908 134.442C1.86396 134.356 1.6679 134.227 1.50243 134.064C1.33693 133.901 1.20567 133.708 1.11614 133.494C1.02653 133.28 0.980371 133.05 0.980371 132.818C0.980371 132.586 1.02653 132.356 1.11614 132.142C1.20576 131.928 1.33711 131.734 1.50243 131.571C1.66764 131.409 1.86362 131.281 2.07908 131.194C2.29451 131.108 2.52478 131.065 2.75655 131.069L2.75655 131.069H2.76215H48.9678C55.3265 131.069 63.9006 128.965 70.1895 122.578C73.0416 119.681 75.8973 116.786 78.7529 113.891C84.59 107.974 90.4266 102.056 96.231 96.1264C96.8666 95.4773 97.4918 94.3077 97.5234 92.959L97.5235 92.959V92.9507C97.5235 90.4665 95.462 88.3956 92.9814 88.3956C90.8747 88.3956 90.4437 88.403 90.2279 88.4067C90.0121 88.4103 90.0117 88.4104 88.7652 88.3956L72.6365 97.7344ZM72.6365 97.7344L72.8803 97.9855M72.6365 97.7344L72.8803 97.9855M72.8702 97.9953L72.8701 97.995C72.6949 98.152 72.553 98.3432 72.4531 98.5565C72.3533 98.7698 72.2976 99.0006 72.2893 99.2358C72.281 99.4711 72.3201 99.7056 72.4046 99.9253C72.4891 100.145 72.6171 100.346 72.7807 100.515C72.9442 100.684 73.1404 100.818 73.3575 100.909C73.5745 101.001 73.8075 101.048 74.0426 101.047C74.2779 101.046 74.5107 100.998 74.7268 100.905C74.9431 100.812 75.1383 100.676 75.3007 100.506L75.31 100.496L75.3102 100.496L75.3105 100.496L75.3113 100.495L75.3148 100.492L75.3287 100.479L75.3833 100.426L75.5944 100.22C75.7784 100.041 76.0458 99.7804 76.3795 99.4542C77.0471 98.8016 77.9799 97.8868 79.0413 96.8375C81.1645 94.7383 83.7995 92.1034 85.8524 89.9549L86.1055 90.1967L85.8524 89.9549C86.7883 88.9754 87.6849 88.3825 88.765 88.3956L72.8702 97.9953ZM72.8702 97.9953L72.8803 97.9855M72.8702 97.9953L72.8803 97.9855" fill="#FF877A" stroke="#FFECE8" stroke-width="0.7"/>
<path d="M59.399 101.687V101.687H59.4046C63.8199 101.687 67.4409 105.315 67.4409 109.732C67.4409 114.149 63.8199 117.777 59.4046 117.777L36.3408 117.777L36.3364 117.777C36.105 117.78 35.8752 117.737 35.6605 117.65C35.4456 117.563 35.2503 117.435 35.0857 117.273C34.9212 117.11 34.7904 116.916 34.7011 116.702C34.6118 116.489 34.5658 116.26 34.5658 116.028C34.5658 115.797 34.6118 115.568 34.7011 115.354C34.7904 115.14 34.9212 114.946 35.0857 114.784C35.2503 114.621 35.4456 114.493 35.6605 114.406C35.8752 114.32 36.105 114.276 36.3364 114.279L36.3364 114.279H36.3408H59.4046C61.9369 114.279 63.9437 112.269 63.9437 109.732C63.9437 107.195 61.9369 105.184 59.4046 105.184V105.184L59.399 105.184C59.1667 105.188 58.9363 105.146 58.7212 105.06C58.5061 104.974 58.31 104.845 58.1444 104.682L57.8989 104.932L58.1444 104.682C57.9791 104.52 57.8477 104.326 57.7581 104.112C57.6684 103.898 57.6223 103.668 57.6223 103.436C57.6223 103.204 57.6684 102.974 57.7581 102.76C57.8477 102.546 57.9791 102.352 58.1444 102.19L57.8989 101.94L58.1444 102.19C58.3097 102.027 58.5057 101.899 58.7212 101.813C58.9367 101.726 59.1671 101.684 59.399 101.687Z" fill="#FF877A" stroke="#FFECE8" stroke-width="0.7"/>
<path d="M2.75729 109.382H2.75598L2.75137 109.382L2.74911 109.382C2.51773 109.384 2.28845 109.339 2.07446 109.251C1.86062 109.164 1.66611 109.034 1.50226 108.871C1.3385 108.707 1.20882 108.513 1.12078 108.299C1.03273 108.085 0.988025 107.856 0.989182 107.624C0.990339 107.393 1.03729 107.165 1.1275 106.952C1.21778 106.738 1.34945 106.545 1.51463 106.383C1.67994 106.221 1.87575 106.094 2.09068 106.008C2.30547 105.923 2.53519 105.881 2.76662 105.885L2.76662 105.885L2.77101 105.885C6.3902 105.899 8.71636 104.4 11.435 102.649C11.9515 102.316 12.4823 101.974 13.0388 101.632L13.0388 101.632C16.4341 99.542 20.0537 97.4897 25.1681 97.4897C29.4482 97.4897 32.7598 98.2294 35.9312 99.2006L36.0337 98.8659L35.9312 99.2006C41.5935 100.934 48.124 101.692 59.3677 101.692L59.3733 101.692C59.6056 101.688 59.836 101.73 60.0511 101.816C60.2663 101.902 60.4625 102.031 60.628 102.194C60.7933 102.356 60.9246 102.551 61.0142 102.765C61.1039 102.979 61.1501 103.208 61.1501 103.44C61.1501 103.672 61.1039 103.902 61.0142 104.116C60.9246 104.33 60.7933 104.524 60.628 104.687C60.4625 104.85 60.2663 104.978 60.0511 105.064C59.836 105.15 59.6056 105.193 59.3733 105.189V105.189H59.3677C47.961 105.189 41.0101 104.417 34.9067 102.548L34.8042 102.883L34.9066 102.548C31.8921 101.625 29.0688 100.987 25.1681 100.987C20.9264 100.987 18.2036 102.561 14.8688 104.614C14.403 104.9 13.934 105.203 13.4559 105.512C10.6083 107.353 7.44146 109.4 2.75729 109.382Z" fill="#FF877A" stroke="#FFECE8" stroke-width="0.7"/>
<path d="M56.5869 71.4243C56.5869 69.2143 54.9749 67.6543 52.1409 66.9783L50.0609 66.4843C48.0069 65.9903 47.8509 64.8723 47.8509 64.3003C47.8509 62.8443 49.1249 61.8043 50.7889 61.8043C52.5309 61.8043 53.7269 62.9223 53.7009 64.4823H56.0409C56.0669 61.9083 54.2209 60.0623 51.5429 59.7763V57.7483H49.9569V59.8023C47.5129 60.1403 45.4849 61.8303 45.4849 64.3263C45.4849 65.6263 46.0309 67.6023 49.4889 68.4603L51.5689 68.9803C53.2849 69.3963 54.2209 70.2803 54.2209 71.5023C54.2209 72.9323 53.1029 74.1803 51.1269 74.1803C49.0209 74.1803 47.7469 72.7503 47.7209 71.2943H45.3809C45.3809 73.5303 47.1749 75.6363 49.9569 76.1043V78.3663H51.5429V76.2083C54.6889 76.0263 56.5869 73.8163 56.5869 71.4243Z" fill="#374146"/>
</svg>
