<svg width="147" height="76" viewBox="0 0 147 76" fill="none" xmlns="http://www.w3.org/2000/svg">
<rect x="63.208" y="1.91943" width="82.2666" height="46.6199" rx="1.5" fill="#FF877A" stroke="#FF877A" stroke-width="3"/>
<rect x="63.208" y="25.2603" width="21.989" height="23.2786" rx="1.5" fill="#FD9270" stroke="#FD9270" stroke-width="3"/>
<mask id="path-3-inside-1" fill="white">
<rect x="0.561523" y="23.7603" width="86.1356" height="51.2605" rx="3"/>
</mask>
<rect x="0.561523" y="23.7603" width="86.1356" height="51.2605" rx="3" stroke="#FD9270" stroke-width="8" mask="url(#path-3-inside-1)"/>
<path d="M97.7317 23.2705C99.38 23.2705 100.716 21.9342 100.716 20.2859C100.716 18.6375 99.38 17.3013 97.7317 17.3013C96.0833 17.3013 94.7471 18.6375 94.7471 20.2859C94.7471 21.9342 96.0833 23.2705 97.7317 23.2705Z" fill="#374146"/>
<path d="M110.082 23.2705C111.731 23.2705 113.067 21.9342 113.067 20.2859C113.067 18.6375 111.731 17.3013 110.082 17.3013C108.434 17.3013 107.098 18.6375 107.098 20.2859C107.098 21.9342 108.434 23.2705 110.082 23.2705Z" fill="#374146"/>
<path d="M110.083 32.4299C110.494 31.9154 110.494 31.1949 109.98 30.6804C109.465 30.2687 108.745 30.2687 108.23 30.7833C106.583 32.6358 101.335 32.6358 99.6879 30.7833C99.2762 30.2687 98.4529 30.1658 97.9383 30.6804C97.4237 31.092 97.3208 31.9154 97.8354 32.4299C99.0704 33.8708 101.437 34.797 103.908 34.797C106.378 34.797 108.745 33.8708 110.083 32.4299Z" fill="#374146"/>
<path d="M37.4538 46.6118C39.1022 46.6118 40.4384 45.2755 40.4384 43.6272C40.4384 41.9788 39.1022 40.6426 37.4538 40.6426C35.8055 40.6426 34.4692 41.9788 34.4692 43.6272C34.4692 45.2755 35.8055 46.6118 37.4538 46.6118Z" fill="#FD9270"/>
<path d="M49.8039 46.612C51.4523 46.612 52.7885 45.2758 52.7885 43.6274C52.7885 41.9791 51.4523 40.6428 49.8039 40.6428C48.1556 40.6428 46.8193 41.9791 46.8193 43.6274C46.8193 45.2758 48.1556 46.612 49.8039 46.612Z" fill="#FD9270"/>
<path d="M49.8047 55.7725C50.2164 55.2579 50.2164 54.5375 49.7018 54.0229C49.1872 53.6112 48.4668 53.6112 47.9522 54.1258C46.3055 55.9783 41.0567 55.9783 39.4101 54.1258C38.9984 53.6112 38.1751 53.5083 37.6605 54.0229C37.1459 54.4346 37.043 55.2579 37.5576 55.7725C38.7926 57.2133 41.1597 58.1396 43.6297 58.1396C46.0997 58.1396 48.4668 57.2133 49.8047 55.7725Z" fill="#FD9270"/>
<path d="M72.3556 42.5499C71.6981 43.0566 70.7451 42.5879 70.7451 41.7578L70.7451 32.7364C70.7451 31.9063 71.6981 31.4376 72.3556 31.9443L78.2083 36.455C78.7278 36.8553 78.7278 37.6388 78.2083 38.0392L72.3556 42.5499Z" fill="#374146"/>
</svg>
