<svg width="112" height="119" viewBox="0 0 112 119" fill="none" xmlns="http://www.w3.org/2000/svg">
<path d="M74.2475 53.4425C67.1702 64.4517 59.6997 75.0677 51.967 85.4216C45.6761 93.6785 36.6328 104.426 24.5751 117.532C23.3956 118.842 21.6918 119.104 20.119 118.449C18.1531 117.532 17.2357 115.304 18.1531 113.207L35.9775 72.5775C36.1086 72.1844 36.2396 71.9222 36.2396 71.5291C36.2396 70.0874 35.0601 68.9078 33.6184 68.9078H3.08101C2.55677 68.9078 2.03252 68.7768 1.63933 68.5146C0.459779 67.7283 0.0665935 66.1555 0.852964 64.8449C7.9303 54.0978 15.4008 43.6129 23.1335 33.5212C29.2934 25.3953 38.4677 14.9104 50.3943 2.06634C51.5739 0.886781 53.2777 0.493596 54.8504 1.27997C56.8163 2.1974 57.7338 4.55651 56.8163 6.52244L39.2541 45.7099C39.123 46.1031 38.9919 46.3652 38.9919 46.7584C38.9919 48.2001 40.1715 49.3796 41.6132 49.3796H72.1506C72.6748 49.3796 73.199 49.5107 73.5922 49.7728C74.7718 50.5592 75.0339 52.263 74.2475 53.4425Z" fill="#374146"/>
<path d="M111.374 53.4426C104.297 64.4518 96.8266 75.0678 89.094 85.4217C82.803 93.6785 73.7598 104.426 61.7021 117.532C60.5225 118.842 58.8187 119.105 57.246 118.449C55.2801 117.532 54.3626 115.304 55.2801 113.207L73.1045 72.5776C73.2355 72.1844 73.3666 71.9223 73.3666 71.5291C73.3666 70.0874 72.187 68.9079 70.7453 68.9079H40.208C39.6837 68.9079 39.1595 68.7768 38.7663 68.5147C37.5867 67.7283 37.1935 66.1556 37.9799 64.845C45.0573 54.0979 52.5278 43.613 60.2604 33.5212C66.4203 25.3954 75.5946 14.9104 87.5213 2.0664C88.7008 0.886842 90.4046 0.493657 91.9774 1.28003C93.9433 2.19746 94.8607 4.55657 93.9433 6.5225L76.381 45.71C76.2499 46.1031 76.1189 46.3653 76.1189 46.7584C76.1189 48.2001 77.2984 49.3797 78.7401 49.3797H109.278C109.802 49.3797 110.326 49.5107 110.719 49.7729C111.899 50.5592 112.161 52.263 111.374 53.4426Z" fill="#FF877A"/>
</svg>
