<svg width="146" height="134" viewBox="0 0 146 134" fill="none" xmlns="http://www.w3.org/2000/svg">
<path d="M82.2157 58.7143L82.2226 58.7039C82.6968 57.9926 82.4762 57.0222 81.898 56.6368C81.755 56.5414 81.4708 56.4444 81.1008 56.4444H46.5902C44.1325 56.4444 42.1279 54.4398 42.1279 51.9821C42.1279 51.3349 42.3373 50.769 42.451 50.4619C42.4713 50.4069 42.4886 50.3602 42.5011 50.3228L42.5247 50.2519L42.5553 50.1837L62.4026 5.8975L62.4073 5.88702L62.4122 5.87662C63.0823 4.44067 62.422 2.6487 60.9154 1.94565L60.897 1.93708L60.8789 1.92801C59.7476 1.36236 58.5173 1.60569 57.5925 2.51784C44.1314 17.0151 33.8122 28.8122 26.9014 37.9287L26.8967 37.9349C18.1864 49.3025 9.77131 61.1125 1.79905 73.2169C1.34104 74.0052 1.58669 74.8806 2.24729 75.321C2.39039 75.4164 2.67457 75.5135 3.0445 75.5135H37.5552C40.0129 75.5135 42.0175 77.5181 42.0175 79.9757C42.0175 80.6229 41.808 81.1888 41.6944 81.4959C41.674 81.5509 41.6567 81.5976 41.6443 81.635L41.6225 81.7003L41.5949 81.7633L21.4519 127.677L82.2157 58.7143ZM82.2157 58.7143L82.2089 58.7248M82.2157 58.7143L82.2089 58.7248M82.2089 58.7248C74.2343 71.1297 65.8139 83.0961 57.0934 94.7729C50.0202 104.056 39.834 116.163 26.2314 130.948L26.2258 130.954M82.2089 58.7248L26.2258 130.954M26.2258 130.954L26.2203 130.96M26.2258 130.954L26.2203 130.96M26.2203 130.96C25.3717 131.903 24.1599 132.139 22.9057 131.628M26.2203 130.96L22.9057 131.628M22.9057 131.628C21.4229 130.92 20.7546 129.273 21.4513 127.679L22.9057 131.628Z" stroke="#FF877A" stroke-width="3"/>
<path d="M124.173 58.7143L124.18 58.7039C124.654 57.9926 124.433 57.0222 123.855 56.6368C123.712 56.5414 123.428 56.4444 123.058 56.4444H88.5474C86.0897 56.4444 84.0851 54.4398 84.0851 51.9821C84.0851 51.3349 84.2946 50.769 84.4082 50.4619C84.4286 50.4069 84.4459 50.3602 84.4583 50.3228L84.482 50.2519L84.5126 50.1837L104.36 5.8975L104.365 5.88702L104.369 5.87662C105.04 4.44067 104.379 2.6487 102.873 1.94565L102.854 1.93708L102.836 1.92801C101.705 1.36236 100.475 1.60569 99.5498 2.51784C86.0886 17.0151 75.7695 28.8122 68.8587 37.9287L68.854 37.9349C60.1436 49.3025 51.7286 61.1125 43.7563 73.2169C43.2983 74.0052 43.544 74.8806 44.2046 75.321C44.3477 75.4164 44.6319 75.5135 45.0018 75.5135H79.5125C81.9701 75.5135 83.9747 77.5181 83.9747 79.9757C83.9747 80.6229 83.7653 81.1888 83.6516 81.4959C83.6313 81.5509 83.614 81.5976 83.6015 81.635L83.5798 81.7003L83.5521 81.7633L63.4092 127.677L124.173 58.7143ZM124.173 58.7143L124.166 58.7248M124.173 58.7143L124.166 58.7248M124.166 58.7248C116.192 71.1297 107.771 83.0961 99.0507 94.7729C91.9775 104.056 81.7913 116.163 68.1887 130.948L68.1831 130.954M124.166 58.7248L68.1831 130.954M68.1831 130.954L68.1776 130.96M68.1831 130.954L68.1776 130.96M68.1776 130.96C67.329 131.903 66.1172 132.139 64.863 131.628M68.1776 130.96L64.863 131.628M64.863 131.628C63.3802 130.92 62.7119 129.273 63.4086 127.679L64.863 131.628Z" stroke="#374146" stroke-width="3"/>
<path d="M121.69 26.0109C131.951 31.6724 150.352 49.5772 141.859 75.9036" stroke="#374146" stroke-width="2" stroke-linecap="round" stroke-linejoin="round"/>
</svg>
