<svg width="160" height="96" viewBox="0 0 160 96" fill="none" xmlns="http://www.w3.org/2000/svg">
<path d="M134.988 40.2104L139.836 35.3625C143.271 31.9266 145.165 27.3601 145.165 22.5043C145.165 17.6487 143.272 13.0782 139.836 9.6423C136.404 6.21046 131.837 4.31296 126.981 4.31296C122.126 4.31296 117.555 6.21042 114.123 9.6423L99.6573 24.1084L99.4805 24.2852L99.6573 24.4619L119.235 44.0362C118.041 44.7111 116.909 45.4779 115.828 46.3034L96.8179 27.2973L96.6411 27.1205L96.4644 27.2974L82.0022 41.7634L82.0022 41.7634C74.9148 48.8548 74.9148 60.396 82.0022 67.4874L82.0022 67.4875C85.4342 70.9194 90.0008 72.8129 94.8604 72.8129C98.0935 72.8129 101.177 71.9263 103.899 70.3519C103.909 71.8202 104.056 73.2459 104.269 74.649C101.348 76.0254 98.172 76.8237 94.8604 76.8237C88.9293 76.8237 83.3563 74.5123 79.1629 70.319C70.5095 61.6656 70.5095 47.5814 79.1629 38.924L111.28 6.80688L111.28 6.8068C115.47 2.61356 121.046 0.302124 126.978 0.302124C132.905 0.302124 138.482 2.61355 142.671 6.8068L142.671 6.80688C146.864 11.0002 149.176 16.5772 149.176 22.5043C149.176 28.4276 146.864 34.0045 142.671 38.1979L140.06 40.8088C138.415 40.469 136.718 40.2697 134.988 40.2104Z" fill="#FF877A" stroke="#FFECE8" stroke-width="0.5"/>
<path d="M147.026 54.2694L147.223 54.0725L147.006 53.8978C143.412 51.0061 138.898 49.1984 133.928 49.1984C122.348 49.1984 112.92 58.6222 112.92 70.2022C112.92 75.1717 114.728 79.6819 117.624 83.2796L117.798 83.4965L117.995 83.2996L147.026 54.2694ZM120.827 86.135L120.63 86.332L120.847 86.5066C124.445 89.3983 128.959 91.206 133.928 91.206C145.512 91.206 154.932 81.7821 154.932 70.2022C154.932 65.2328 153.124 60.7226 150.233 57.125L150.058 56.9078L149.861 57.1048L120.827 86.135ZM108.914 70.1983C108.914 56.4076 120.134 45.1837 133.928 45.1837C147.723 45.1837 158.939 56.4076 158.939 70.1983C158.939 83.9889 147.719 95.2129 133.928 95.2129C120.138 95.2129 108.914 83.9889 108.914 70.1983Z" fill="#374146" stroke="#FFECE8" stroke-width="0.5"/>
<line y1="-1" x2="62.128" y2="-1" transform="matrix(-1 0 0 1 62.939 28.4031)" stroke="#374146" stroke-width="2"/>
<line y1="-1" x2="42.1583" y2="-1" transform="matrix(-1 0 0 1 62.939 47.7574)" stroke="#374146" stroke-width="2"/>
<line y1="-1" x2="62.128" y2="-1" transform="matrix(-1 0 0 1 62.939 67.1118)" stroke="#374146" stroke-width="2"/>
</svg>
