<svg width="119" height="114" viewBox="0 0 119 114" fill="none" xmlns="http://www.w3.org/2000/svg">
<path d="M0.0410156 104.754C0.0410137 105.077 0.104623 105.396 0.228198 105.693C0.351773 105.991 0.532881 106.261 0.761137 106.489C0.989393 106.716 1.26031 106.896 1.55834 107.019C1.85637 107.141 2.17567 107.204 2.49791 107.203H35.9816C36.3038 107.204 36.6231 107.141 36.9212 107.019C37.2192 106.896 37.4901 106.716 37.7184 106.489C37.9466 106.261 38.1277 105.991 38.2513 105.693C38.3749 105.396 38.4385 105.077 38.4385 104.754V85.8755H0.0495451L0.0410156 104.754Z" fill="#374146"/>
<path d="M34.8385 44.808C33.9524 44.1525 33.2355 43.2951 32.7474 42.307C32.2592 41.3188 32.0139 40.2284 32.0318 39.1264V38.9558C33.1631 38.9558 34.248 38.5064 35.0479 37.7065C35.8479 36.9066 36.2972 35.8216 36.2972 34.6904V26.1595C36.2972 25.0282 35.8479 23.9433 35.0479 23.1434C34.248 22.3434 33.1631 21.894 32.0318 21.894H6.43917C5.30791 21.894 4.22298 22.3434 3.42305 23.1434C2.62313 23.9433 2.17374 25.0282 2.17374 26.1595V34.6904C2.17374 35.8216 2.62313 36.9066 3.42305 37.7065C4.22298 38.5064 5.30791 38.9558 6.43917 38.9558V39.1264C6.45708 40.2284 6.21177 41.3188 5.72363 42.307C5.23548 43.2951 4.51859 44.1525 3.63251 44.808C2.52371 45.5954 1.61923 46.6365 0.994478 47.8444C0.369729 49.0524 0.0428219 50.3922 0.0410156 51.7521V56.0176H38.43V51.7521C38.4282 50.3922 38.1013 49.0524 37.4765 47.8444C36.8518 46.6365 35.9473 45.5954 34.8385 44.808Z" fill="#374146"/>
<path d="M38.43 60.2832H0.0410156V81.6104H38.43V60.2832Z" fill="#374146"/>
<rect x="94.0923" y="0.965332" width="33.8379" height="68.2589" rx="16.9189" transform="rotate(45 94.0923 0.965332)" fill="#FF877A"/>
<rect x="70.4927" y="24.5649" width="33.8379" height="1.50831" transform="rotate(45 70.4927 24.5649)" fill="#FFECE8"/>
<mask id="mask0" mask-type="alpha" maskUnits="userSpaceOnUse" x="54" y="71" width="38" height="38">
<circle cx="72.6568" cy="89.8726" r="18.6262" transform="rotate(-20.4135 72.6568 89.8726)" fill="#4DBCC4"/>
</mask>
<g mask="url(#mask0)">
<circle cx="72.6568" cy="89.8726" r="18.6262" transform="rotate(-20.4135 72.6568 89.8726)" fill="#4DBCC4"/>
<rect x="52.5063" y="96.3662" width="42.3002" height="1.88551" transform="rotate(-20.4135 52.5063 96.3662)" fill="#FFECE8"/>
</g>
</svg>
