<svg width="139" height="142" viewBox="0 0 139 142" fill="none" xmlns="http://www.w3.org/2000/svg">
<path d="M94.7002 134.045C95.4854 119.463 112.009 114.089 126.173 100.276C140.337 86.4621 139.695 65.7694 135.613 63.4369C131.53 61.1043 132.48 72.7072 126.173 84.9254C119.866 97.1437 107.289 100.276 107.289 100.276C107.289 100.276 115.159 94.1372 119.878 84.9254C124.598 75.7136 116.417 75.1627 113.584 78.787C110.751 82.4114 108.075 86.4621 88.4056 100.276C68.7366 114.089 79.6794 133.257 79.6794 133.257C85.0637 143.209 93.5666 144.706 94.7002 134.045Z" fill="#FF877A"/>
<path d="M44.0044 134.045C43.2192 119.463 26.6954 114.089 12.5315 100.276C-1.63231 86.4621 -0.990547 65.7694 3.09179 63.4369C7.17411 61.1043 6.22479 72.7072 12.5315 84.9254C18.8383 97.1437 31.4153 100.276 31.4153 100.276C31.4153 100.276 23.546 94.1372 18.8261 84.9254C14.1062 75.7136 22.2876 75.1627 25.1207 78.787C27.9538 82.4114 30.63 86.4621 50.299 100.276C69.968 114.089 59.0252 133.257 59.0252 133.257C53.6409 143.209 45.138 144.706 44.0044 134.045Z" fill="#FF877A"/>
<path d="M110.951 42.3894C110.951 19.1235 92.0882 0.260864 68.8223 0.260864C45.5565 0.260864 26.6938 19.1235 26.6938 42.3894C26.6938 65.6552 45.5565 84.5179 68.8223 84.5179C92.0882 84.5179 110.951 65.6552 110.951 42.3894Z" fill="#4DBCC4"/>
<path d="M80.6371 49.3916C80.6371 44.5792 77.1224 41.389 71.3368 39.9291L67.1192 38.9017C63.118 37.9825 62.7935 35.7656 62.7935 34.6842C62.7935 31.9265 65.1727 29.8718 68.471 29.8718C71.8234 29.8718 74.0944 32.0888 74.0404 35.1708H79.5556C79.6097 29.7637 75.7707 25.8165 70.1472 25.2217V20.8419H66.6867V25.2217C61.4417 25.9246 57.2242 29.5474 57.2242 34.7383C57.2242 37.55 58.4138 41.7675 65.6593 43.606L69.985 44.6874C73.3915 45.6066 75.0677 47.2828 75.0677 49.6079C75.0677 52.3655 72.9589 54.6906 69.1199 54.6906C65.0105 54.6906 62.5232 51.987 62.5232 49.0672H57.0079C56.9538 53.8254 60.7388 58.2593 66.6867 59.1785V63.9368H70.1472V59.3407C76.4736 58.9622 80.6371 54.6365 80.6371 49.3916Z" fill="#FFECE8"/>
</svg>
