<svg width="39" height="60" viewBox="0 0 39 60" fill="none" xmlns="http://www.w3.org/2000/svg">
<path fill-rule="evenodd" clip-rule="evenodd" d="M38.474 4.28571V55.7143C38.474 58.052 36.526 60 34.1883 60H4.28571C1.94805 60 0 58.052 0 55.7143V4.28571C0 1.94805 1.94805 0 4.28571 0H34.1883C36.526 0 38.474 1.94805 38.474 4.28571ZM34.1883 57.8571C35.3571 57.8571 36.3312 56.8831 36.3312 55.7143V4.28571C36.3312 3.11688 35.3571 2.14286 34.1883 2.14286H4.28571C3.11688 2.14286 2.14286 3.11688 2.14286 4.28571V55.7143C2.14286 56.8831 3.11688 57.8571 4.28571 57.8571H34.1883Z" fill="#374146"/>
<path d="M11.883 10.7143H26.4933C27.0778 10.7143 27.5648 10.2273 27.5648 9.64284C27.5648 9.05842 27.0778 8.57141 26.4933 8.57141H11.883C11.2985 8.57141 10.8115 9.05842 10.8115 9.64284C10.8115 10.3247 11.2985 10.7143 11.883 10.7143Z" fill="#374146"/>
<path d="M16.3634 35.3573H8.86342C8.27901 35.3573 7.79199 34.8703 7.79199 34.2859V26.4937C7.79199 25.9093 8.27901 25.4222 8.86342 25.4222H16.3634C16.9478 25.4222 17.4348 25.9093 17.4348 26.4937V34.2859C17.4348 34.8703 16.9478 35.3573 16.3634 35.3573Z" fill="#FF877A" fill-opacity="0.3" stroke="#374146" stroke-width="1.5" stroke-miterlimit="10"/>
<path d="M21.4282 28.4419H29.9023" stroke="#374146" stroke-width="1.5" stroke-linecap="round" stroke-linejoin="round"/>
<path d="M21.4282 32.338H29.9023" stroke="#374146" stroke-width="1.5" stroke-linecap="round" stroke-linejoin="round"/>
<path d="M16.3634 49.2856H8.86342C8.27901 49.2856 7.79199 48.7986 7.79199 48.2142V40.422C7.79199 39.8376 8.27901 39.3506 8.86342 39.3506H16.3634C16.9478 39.3506 17.4348 39.8376 17.4348 40.422V48.2142C17.4348 48.7986 16.9478 49.2856 16.3634 49.2856Z" fill="#FF877A" fill-opacity="0.3" stroke="#374146" stroke-width="1.5" stroke-miterlimit="10"/>
<path d="M21.4282 42.3702H29.9023" stroke="#374146" stroke-width="1.5" stroke-linecap="round" stroke-linejoin="round"/>
<path d="M21.4282 46.2664H29.9023" stroke="#374146" stroke-width="1.5" stroke-linecap="round" stroke-linejoin="round"/>
<path d="M9.64307 30.3897L11.8833 32.6299L15.682 28.052" stroke="#374146" stroke-width="1.5" stroke-linecap="round" stroke-linejoin="round"/>
</svg>
