<svg width="40" height="62" viewBox="0 0 40 62" fill="none" xmlns="http://www.w3.org/2000/svg">
<path fill-rule="evenodd" clip-rule="evenodd" d="M2.2002 20.7V52.5H37.3002V20.7" fill="#FF877A" fill-opacity="0.3"/>
<path fill-rule="evenodd" clip-rule="evenodd" d="M39.5 4.4V57.2C39.5 59.6 37.5 61.6 35.1 61.6H4.4C2 61.6 0 59.6 0 57.2V4.4C0 2 2 0 4.4 0H35.1C37.5 0 39.5 2 39.5 4.4ZM35.1 59.4C36.3 59.4 37.3 58.4 37.3 57.2V4.4C37.3 3.2 36.3 2.2 35.1 2.2H4.4C3.2 2.2 2.2 3.2 2.2 4.4V57.2C2.2 58.4 3.2 59.4 4.4 59.4H35.1Z" fill="#374146"/>
<path d="M12.2001 11H27.2001C27.8001 11 28.3001 10.5 28.3001 9.89999C28.3001 9.29999 27.8001 8.79999 27.2001 8.79999H12.2001C11.6001 8.79999 11.1001 9.29999 11.1001 9.89999C11.1001 10.6 11.6001 11 12.2001 11Z" fill="#374146"/>
<path d="M8.3999 30.4H24.0999" stroke="#374146" stroke-width="2" stroke-linecap="round" stroke-linejoin="round"/>
<path d="M8.3999 43.6H24.0999" stroke="#374146" stroke-width="2" stroke-linecap="round" stroke-linejoin="round"/>
<path d="M23 30.4H31.1" stroke="#374146" stroke-opacity="0.5" stroke-width="2" stroke-linecap="round" stroke-linejoin="round"/>
<path d="M19.5 43.6H31.1" stroke="#374146" stroke-opacity="0.5" stroke-width="2" stroke-linecap="round" stroke-linejoin="round"/>
<path d="M24.1001 33.9C26.0331 33.9 27.6001 32.333 27.6001 30.4C27.6001 28.467 26.0331 26.9 24.1001 26.9C22.1671 26.9 20.6001 28.467 20.6001 30.4C20.6001 32.333 22.1671 33.9 24.1001 33.9Z" fill="#374146"/>
<path d="M21.5 48C23.433 48 25 46.433 25 44.5C25 42.567 23.433 41 21.5 41C19.567 41 18 42.567 18 44.5C18 46.433 19.567 48 21.5 48Z" fill="#374146"/>
</svg>
