<svg width="40" height="62" viewBox="0 0 40 62" fill="none" xmlns="http://www.w3.org/2000/svg">
<path d="M12.2001 11H27.2001C27.8001 11 28.3001 10.5 28.3001 9.89999C28.3001 9.29999 27.8001 8.79999 27.2001 8.79999H12.2001C11.6001 8.79999 11.1001 9.29999 11.1001 9.89999C11.1001 10.6 11.6001 11 12.2001 11Z" fill="#374146"/>
<path d="M28.6998 29C28.6998 28.9 28.6998 28.9 28.6998 28.9C28.5998 23.9 24.5998 19.9 19.4998 19.9V19.8C14.3998 19.8 10.2998 23.9 10.2998 28.9C10.2998 33.9 14.3998 38 19.4998 38V37.8V38C24.5998 38 28.5998 34 28.6998 29ZM19.4998 21.8C23.4998 21.8 26.6998 25 26.6998 28.9C26.6998 32.8 23.4998 36 19.4998 36C15.4998 36 12.2998 32.8 12.2998 28.9C12.2998 25 15.4998 21.8 19.4998 21.8Z" fill="#374146"/>
<path d="M38.2001 47.3C32.7001 43.6 26.3001 41.7 19.7001 41.7C12.9001 41.7 6.5001 43.7 1.0001 47.4C0.800098 47.6 0.600098 47.8 0.600098 48.1C0.600098 48.4 0.600098 48.7 0.800098 48.9C0.900098 49.1 1.1001 49.3 1.4001 49.4C1.5001 49.4 1.5001 49.4 1.6001 49.4C1.8001 49.4 2.0001 49.3 2.2001 49.2C7.3001 45.7 13.4001 43.8 19.7001 43.8C25.9001 43.8 31.9001 45.6 37.1001 49.1C37.3001 49.3 37.6001 49.3 37.9001 49.3C38.2001 49.3 38.4001 49.1 38.6001 48.9C38.8001 48.3 38.7001 47.7 38.2001 47.3Z" fill="#374146"/>
<path fill-rule="evenodd" clip-rule="evenodd" d="M39.5 4.4V57.2C39.5 59.6 37.5 61.6 35.1 61.6H4.4C2 61.6 0 59.6 0 57.2V4.4C0 2 2 0 4.4 0H35.1C37.5 0 39.5 2 39.5 4.4ZM35.1 59.4C36.3 59.4 37.3 58.4 37.3 57.2V4.4C37.3 3.2 36.3 2.2 35.1 2.2H4.4C3.2 2.2 2.2 3.2 2.2 4.4V57.2C2.2 58.4 3.2 59.4 4.4 59.4H35.1Z" fill="#374146"/>
<path d="M19.5003 36C23.4767 36 26.7003 32.8212 26.7003 28.9C26.7003 24.9788 23.4767 21.8 19.5003 21.8C15.5238 21.8 12.3003 24.9788 12.3003 28.9C12.3003 32.8212 15.5238 36 19.5003 36Z" fill="white"/>
<path d="M19.6002 43.8C13.3002 43.8 7.3002 45.6 2.2002 49.1V57.2C2.2002 58.4 3.2002 59.4 4.4002 59.4H35.1002C36.3002 59.4 37.3002 58.4 37.3002 57.2V49.2C37.2002 49.2 37.1002 49.1 37.0002 49C31.8002 45.6 25.8002 43.8 19.6002 43.8Z" fill="#FF877A" fill-opacity="0.3"/>
<path d="M12.3003 28.9C12.3003 25 15.5003 21.8 19.5003 21.8C23.5003 21.8 26.7003 25 26.7003 28.9C26.7003 32.8 23.5003 36 19.5003 36C15.5003 36 12.3003 32.8 12.3003 28.9Z" fill="#FF877A" fill-opacity="0.3"/>
</svg>
