<svg width="98" height="38" viewBox="0 0 98 38" fill="none" xmlns="http://www.w3.org/2000/svg">
<path d="M27.2217 0.70755V37.4689H31.5832V0.70755H27.2217Z" fill="#374146"/>
<path d="M38.8755 11.2998V37.4689H43.237V11.2998H38.8755ZM37.7851 4.03061C37.7851 5.84791 39.1871 7.24982 41.0563 7.24982C42.9255 7.24982 44.3274 5.84791 44.3274 4.03061C44.3274 2.16139 42.9255 0.70755 41.0563 0.70755C39.1871 0.70755 37.7851 2.16139 37.7851 4.03061Z" fill="#374146"/>
<path d="M71.191 19.0363C71.191 13.844 68.2833 10.8844 63.5064 10.8844C59.8718 10.8844 56.7564 12.7536 54.8353 16.1286V11.2998H50.4738V37.4689H54.8353V26.5132C54.8353 19.244 58.418 14.8306 62.3122 14.8306C65.2199 14.8306 66.8295 16.5959 66.8295 20.1786V37.4689H71.191V19.0363Z" fill="#374146"/>
<path d="M81.9601 29.9401C81.9601 26.9805 84.4524 25.319 88.9178 25.319H93.5908V25.942C93.5908 31.8612 89.6447 33.9382 86.2697 33.9382C83.5178 33.9382 81.9601 32.4324 81.9601 29.9401ZM97.9523 20.7498C97.9523 13.7921 93.6427 10.8844 87.8793 10.8844C82.9466 10.8844 79.312 13.6363 78.5851 18.0498L82.4274 18.9325C82.9986 16.3363 85.1793 14.8306 87.8793 14.8306C91.0466 14.8306 93.5908 16.1806 93.5908 20.2305V21.3728H89.3331C82.1678 21.3728 77.4947 24.3324 77.4947 29.9401C77.4947 35.5478 81.2332 37.8843 85.5947 37.8843C89.4889 37.8843 92.137 36.1708 93.7985 33.7824L94.5254 37.4689H97.9523V20.7498Z" fill="#374146"/>
<circle r="8.21964" transform="matrix(-1 0 0 1 11.9962 21.3286)" fill="#FF877A"/>
<circle r="3.77659" transform="matrix(-1 0 0 1 3.77663 34.108)" fill="#FF877A"/>
</svg>
