<svg width="805" height="144" viewBox="0 0 805 144" fill="none" xmlns="http://www.w3.org/2000/svg">
<path d="M115.653 0.76001V110.5H131.773V77.485C131.773 56.715 144.018 45.4 152.853 45.4C160.138 45.4 165.098 47.725 165.098 59.66V110.5H181.218V55.475C181.218 38.89 172.538 31.14 158.123 31.14C146.343 31.14 137.353 37.65 131.773 45.71V0.76001H115.653Z" fill="#374146"/>
<path d="M229.788 45.4C241.413 45.4 247.303 53.77 248.698 62.45H210.723C212.428 52.685 219.093 45.4 229.788 45.4ZM265.748 68.96C265.748 51.445 254.743 31.14 229.788 31.14C204.058 31.14 193.363 52.84 193.363 71.44C193.363 90.04 204.058 111.74 229.788 111.74C247.613 111.74 256.448 104.455 264.043 89.73L250.248 84.305C246.218 92.83 238.158 97.48 229.788 97.48C217.078 97.48 210.413 87.405 210.413 75.935H265.748V68.96Z" fill="#374146"/>
<path d="M274.52 88.025C274.52 104.3 285.525 111.74 298.545 111.74C309.55 111.74 317.61 107.4 322.725 100.27L324.275 110.5H337.915V61.985C337.915 39.045 324.895 31.14 306.76 31.14C291.725 31.14 280.565 39.51 277.31 52.685L292.035 55.785C294.67 48.81 300.25 45.4 306.605 45.4C314.82 45.4 321.795 49.275 321.795 59.04V62.45H308.31C288.315 62.45 274.52 71.905 274.52 88.025ZM291.57 88.025C291.57 80.585 297.77 75.935 307.69 75.935H321.795V77.64C321.795 91.125 311.255 97.48 301.335 97.48C294.515 97.48 291.57 93.295 291.57 88.025Z" fill="#374146"/>
<path d="M353.722 0.76001V110.5H369.842V0.76001H353.722Z" fill="#374146"/>
<path d="M380.176 46.64H393.196V83.84C393.196 103.06 404.046 111.74 418.771 111.74C423.111 111.74 427.141 110.965 431.326 108.95L427.141 95.31C424.351 97.015 422.491 97.48 419.701 97.48C412.571 97.48 409.316 93.605 409.316 84.77V46.64H429.621V32.38H409.316V0.76001L393.196 10.835V32.38H380.176V46.64Z" fill="#374146"/>
<path d="M442.364 0.76001V110.5H458.484V77.485C458.484 56.715 470.729 45.4 479.564 45.4C486.849 45.4 491.809 47.725 491.809 59.66V110.5H507.929V55.475C507.929 38.89 499.249 31.14 484.834 31.14C473.054 31.14 464.064 37.65 458.484 45.71V0.76001H442.364Z" fill="#374146"/>
<path d="M528.992 57.335C528.992 64 530.852 69.58 534.262 73.765C528.527 77.02 524.807 82.6 524.807 89.575C524.807 95 526.512 99.03 529.302 101.82C525.272 105.54 522.637 110.965 522.637 117.63C522.637 134.68 537.362 143.36 557.047 143.36C574.562 143.36 591.302 135.765 591.302 116.39C591.302 101.665 580.762 94.07 565.417 94.07H548.212C542.787 94.07 540.152 92.21 540.152 88.025C540.152 85.08 541.547 82.755 544.337 81.205C547.902 82.6 552.242 83.53 556.892 83.53C572.702 83.53 584.947 73.765 584.947 57.335C584.947 52.375 583.707 48.035 581.537 44.315L592.077 38.425L585.567 26.8L571.152 34.55C566.967 32.38 562.162 31.14 556.892 31.14C541.082 31.14 528.992 41.06 528.992 57.335ZM562.007 107.71C569.602 107.71 574.872 110.19 574.872 117.63C574.872 125.225 568.207 129.41 557.047 129.41C545.112 129.41 538.137 124.45 538.137 116.7C538.137 112.67 539.222 109.725 541.547 107.245C544.027 107.555 546.662 107.71 549.452 107.71H562.007ZM544.647 57.335C544.647 49.585 549.762 44.625 556.892 44.625C564.177 44.625 569.292 49.585 569.292 57.335C569.292 65.085 564.177 70.045 556.892 70.045C549.762 70.045 544.647 65.085 544.647 57.335Z" fill="#374146"/>
<path d="M632.225 45.4C643.85 45.4 649.74 53.77 651.135 62.45H613.16C614.865 52.685 621.53 45.4 632.225 45.4ZM668.185 68.96C668.185 51.445 657.18 31.14 632.225 31.14C606.495 31.14 595.8 52.84 595.8 71.44C595.8 90.04 606.495 111.74 632.225 111.74C650.05 111.74 658.885 104.455 666.48 89.73L652.685 84.305C648.655 92.83 640.595 97.48 632.225 97.48C619.515 97.48 612.85 87.405 612.85 75.935H668.185V68.96Z" fill="#374146"/>
<path d="M680.743 32.38V110.5H696.863V78.88C696.863 57.335 706.783 45.4 716.858 45.4C724.143 45.4 728.948 49.12 728.948 59.66V110.5H745.068V54.545C745.068 39.355 735.768 31.14 722.128 31.14C711.743 31.14 702.443 36.41 696.863 45.71V32.38H680.743Z" fill="#374146"/>
<path d="M753.205 46.64H766.225V83.84C766.225 103.06 777.075 111.74 791.8 111.74C796.14 111.74 800.17 110.965 804.355 108.95L800.17 95.31C797.38 97.015 795.52 97.48 792.73 97.48C785.6 97.48 782.345 93.605 782.345 84.77V46.64H802.65V32.38H782.345V0.76001L766.225 10.835V32.38H753.205V46.64Z" fill="#374146"/>
<circle r="33.0918" transform="matrix(-1 0 0 1 48.3402 43.8454)" fill="#FF877A"/>
<circle r="15.2043" transform="matrix(-1 0 0 1 15.2485 95.2956)" fill="#FF877A"/>
</svg>
