<?xml version="1.0" encoding="utf-8"?>
<!-- Generator: Adobe Illustrator 18.0.0, SVG Export Plug-In . SVG Version: 6.00 Build 0)  -->
<!DOCTYPE svg PUBLIC "-//W3C//DTD SVG 1.1//EN" "http://www.w3.org/Graphics/SVG/1.1/DTD/svg11.dtd" [
	<!ENTITY ns_flows "http://ns.adobe.com/Flows/1.0/">
	<!ENTITY ns_extend "http://ns.adobe.com/Extensibility/1.0/">
	<!ENTITY ns_ai "http://ns.adobe.com/AdobeIllustrator/10.0/">
	<!ENTITY ns_graphs "http://ns.adobe.com/Graphs/1.0/">
]>
<svg version="1.1" id="Layer_1" xmlns:x="&ns_extend;" xmlns:i="&ns_ai;" xmlns:graph="&ns_graphs;"
	 xmlns="http://www.w3.org/2000/svg" xmlns:xlink="http://www.w3.org/1999/xlink" xmlns:a="http://ns.adobe.com/AdobeSVGViewerExtensions/3.0/"
	 x="0px" y="0px" viewBox="0 0 1400 980" enable-background="new 0 0 1400 980" xml:space="preserve">
<g>
	<rect fill="#BCE5E9" width="1400" height="980"/>
	<g>
		<g>
			<g>
				<path fill="#6BAAB5" d="M915.2,834.5h-37.7c-9.1,0-16.4-7.3-16.4-16.4l0,0c0-9.1,7.3-16.4,16.4-16.4h37.7
					c9.1,0,16.4,7.3,16.4,16.4l0,0C931.6,827.1,924.3,834.5,915.2,834.5z"/>
				<path fill="#6BAAB5" d="M1205.4,747.6h-105.5c-5.4,0-10.1-4.2-10.2-9.7c-0.1-5.5,4.3-10,9.9-10h47.2c14.6,0,26.5-11.9,26.5-26.5
					v0c0-14.6-11.9-26.5-26.5-26.5H197.9c-14.6,0-26.5,11.9-26.5,26.5v0c0,14.6,11.9,26.5,26.5,26.5h385.6c5.4,0,10.1,4.2,10.2,9.7
					c0.1,5.5-4.3,10-9.9,10H467c-12.8,0-23.2,10.4-23.2,23.2v0c0,12.8,10.4,23.2,23.2,23.2h39c2.1,0,3.8,1.7,3.8,3.8
					s-1.7,3.8-3.8,3.8H399.2c-9.1,0-16.4,7.3-16.4,16.4v0c0,9.1,7.3,16.4,16.4,16.4H832c9.1,0,16.4-7.3,16.4-16.4l0,0
					c0-9.1-7.3-16.4-16.4-16.4h-41.2c-2.1,0-3.8-1.7-3.8-3.8s1.7-3.8,3.8-3.8h414.5c12.8,0,23.2-10.4,23.2-23.2v0
					C1228.6,758,1218.2,747.6,1205.4,747.6z"/>
			</g>
		</g>
		<path fill="#3C7F8C" d="M495.5,696.2H211.3c-4.2,0-7.6-3.4-7.6-7.6l0,0c0-4.2,3.4-7.6,7.6-7.6h284.2c4.2,0,7.6,3.4,7.6,7.6l0,0
			C503.1,692.8,499.7,696.2,495.5,696.2z"/>
		<path fill="#A0C2C6" d="M1046.7,178.5v2.5h-7v-7.8h-6.1h-13.4h-15.3h-13.4h-15.3h-13.4h-15.3h-13.4h-17v7.8H734.4v-7.8h-6.1h-13.4
			h-15.3h-13.4h-15.3h-13.4h-15.3h-13.4h-17v7.8h-9.7v-2.5h-37v15.8h37v-2.5h9.7v6.9h-3.5V516h3.5v12.8h17h13.4h15.3h13.4h15.3h13.4
			h15.3h13.4h6.1V516h78.1h9.7h95v12.8h17h13.4h15.3h13.4h15.3h13.4h15.3h13.4h6.1V191.7h7v2.5h37v-15.8H1046.7z M917.1,191.7v6.9
			H734.4v-6.9H917.1z"/>
		<g>
			<polygon fill="#A0C2C6" points="359.1,530.5 359.1,679.3 363.8,679.3 365.5,679.3 365.5,686.7 375.6,686.7 375.6,679.3 
				487.9,679.3 487.9,686.7 498,686.7 498,679.3 499.7,679.3 504.5,679.3 504.5,530.5 			"/>
			<path fill="#A0C2C6" d="M438.5,430.4c0.6,0.7,0.4,4.6,1.2,8.6c-7.1-1.3-11.5,3-10.4,3c1,0,4.3,3.3,8.5,5.3
				c-5.4,4.8-4.6,10.9-4,10c0.1-0.1,0.2-0.1,0.3-0.2c-0.3,1.2-0.5,2.4-0.6,3.6c-3.6-4.8-5-9.6-5-9.6s-0.4,0.6-1,1.6
				c-0.1-0.9-0.2-1.7-0.3-2.5c3.7,0.7,6.3-0.4,5.6-0.7c-1.1-0.5-3-6.1-6.7-10.2c0.2-0.1,0.3-0.1,0.5-0.2c8-3.8,8.8-11.2,7.9-10.4
				c-0.8,0.7-5,0.3-9.5,1.1c1.6-7.9-3-12.8-3-11.6c0,1.1-3.8,4.7-6.1,9.2c-5.2-6-11.9-5.4-11-4.7c1,0.7,1.5,6.6,4,11.5
				c-0.2,0-0.3,0.1-0.5,0.1c-8.7,1.8-11.2,8.8-10.1,8.2c1.1-0.6,6.6,1.5,12.1,1.3c0,0.2-0.1,0.3-0.1,0.5c-1.2,5,0,8.9,1.3,11
				c-0.1,0.7-0.7,5.2,0.6,9.7c-4.7-1.1-7.8-2.4-7.8-2.4s0,2,1.3,4.4c-5.8-1.3-9.7-2.9-9.7-2.9s1.6,5.4,5.7,9.7h-8.3l4.3,4h2.5
				l1.7,1.4l8.7,50.8h42.9l8.7-50.8l1.7-1.4h2.5l4.3-4h-11.9c4-4.3,5.7-9.7,5.7-9.7s-3.1,1.3-7.9,2.5c1.1-2.2,1.1-3.9,1.1-3.9
				s-4,1.6-9.5,2.8c0.4-1.3,0.7-2.6,0.8-3.8c1.8,1.5,3.4,1.8,3.1,1.3c-0.5-1,1.2-6,0.9-11c0.1,0,0.3,0.1,0.4,0.1
				c7.8,1.7,12.5-3.1,11.4-3c-1.1,0.1-4.9-3.7-9.5-5.5c0.1-0.1,0.2-0.2,0.3-0.4c4.9-6.3,2.5-12.6,2.1-11.6c-0.4,1-5.4,2.9-9,6.3
				c-0.1-0.1-0.1-0.3-0.2-0.4C444.4,430.1,437.7,429.6,438.5,430.4z M425.6,456.3c-0.8,2.1-1.4,4.7-1.4,7.7c-0.5-0.4-1-0.7-1.6-1
				c-4.6-2.6-7.7-4.9-9.4-6.4c0.2-1.3,4.3-5.4,6.3-10.3c0.1,0.1,0.2,0.2,0.4,0.3c1.8,1.4,3.5,2.3,5.2,2.9c0.3,1.7,0.5,3.6,0.5,5.7
				C425.6,455.6,425.6,456,425.6,456.3z M437.3,463c-0.5,0.3-0.9,0.5-1.3,0.8c-0.3-0.3-0.6-0.7-1-1c0-2.4,0.4-4.6,1-6.6
				c2.1-0.6,5.2-1.4,7.8-2.9c0,0.2,0.1,0.3,0.1,0.4c0.3,1.5,0.8,2.7,1.4,3.8C443.7,459,441,460.9,437.3,463z"/>
			<path fill="#A0C2C6" d="M350.2,388.8H225.5v-10.7h-5.2v308.6h136.8V378.1h-6.9V388.8z M350.2,679.6h-63.1
				c0.7-0.5,1.1-1.2,1.1-2.1v-81.7c0-1.4-1.1-2.6-2.6-2.6h-13.8c-1.4,0-2.6,1.1-2.6,2.6v81.7c0,0.9,0.4,1.6,1.1,2.1h-3
				c0.7-0.5,1.1-1.2,1.1-2.1v-81.7c0-1.4-1.1-2.6-2.6-2.6h-13.8c-1.4,0-2.6,1.1-2.6,2.6v81.7c0,0.9,0.4,1.6,1.1,2.1h-3
				c0.7-0.5,1.1-1.2,1.1-2.1v-81.7c0-1.4-1.1-2.6-2.6-2.6h-13.8c-1.4,0-2.6,1.1-2.6,2.6v81.7c0,0.9,0.4,1.6,1.1,2.1h-5.4v-90.8
				h124.7V679.6z M350.2,582h-4c0.8-0.4,1.4-1.3,1.4-2.3V498c0-1.4-1.1-2.6-2.6-2.6h-13.8c-1.4,0-2.6,1.1-2.6,2.6v81.7
				c0,1,0.6,1.8,1.4,2.3h-3.6c0.8-0.4,1.4-1.3,1.4-2.3V498c0-1.4-1.1-2.6-2.6-2.6h-13.8c-1.4,0-2.6,1.1-2.6,2.6v81.7
				c0,1,0.6,1.8,1.4,2.3h-3.6c0.8-0.4,1.4-1.3,1.4-2.3V498c0-1.4-1.1-2.6-2.6-2.6h-13.8c-1.4,0-2.6,1.1-2.6,2.6v81.7
				c0,1,0.6,1.8,1.4,2.3h-3.6c0.8-0.4,1.4-1.3,1.4-2.3V498c0-1.4-1.1-2.6-2.6-2.6h-13.8c-1.4,0-2.6,1.1-2.6,2.6v81.7
				c0,1,0.6,1.8,1.4,2.3h-3.6c0.8-0.4,1.4-1.3,1.4-2.3V498c0-1.4-1.1-2.6-2.6-2.6h-13.8c-1.4,0-2.6,1.1-2.6,2.6v81.7
				c0,1,0.6,1.8,1.4,2.3h-25.4v-90.8h124.7V582z M287.8,485c0.4-0.4,0.6-1,0.6-1.6v-69.8c0,0.1,0.1,0.2,0.1,0.2l40.8,70.8
				c0.1,0.1,0.2,0.2,0.2,0.3H287.8z M350.2,485h-16.3l10.9-6.3c1.2-0.7,1.6-2.3,0.9-3.5l-40.8-70.8c-0.7-1.2-2.3-1.6-3.5-0.9
				l-12,6.9c-0.5,0.3-0.8,0.7-1,1.2v-9.9c0-1.4-1.1-2.6-2.6-2.6H272c-1.4,0-2.6,1.1-2.6,2.6v81.7c0,0.6,0.2,1.2,0.6,1.6h-2
				c0.4-0.4,0.6-1,0.6-1.6v-81.7c0-1.4-1.1-2.6-2.6-2.6h-13.8c-1.4,0-2.6,1.1-2.6,2.6v81.7c0,0.6,0.2,1.2,0.6,1.6h-2
				c0.4-0.4,0.6-1,0.6-1.6v-81.7c0-1.4-1.1-2.6-2.6-2.6h-13.8c-1.4,0-2.6,1.1-2.6,2.6v81.7c0,0.6,0.2,1.2,0.6,1.6h-5v-90.8h124.7
				V485z"/>
			<circle fill="#A0C2C6" cx="400.9" cy="191.7" r="46.2"/>
		</g>
		<g>
			<g>
				<path fill="#0F0969" d="M240.4,399.1h-13.8c-1.4,0-2.6,1.1-2.6,2.6v81.7c0,1.4,1.1,2.6,2.6,2.6h13.8c1.4,0,2.6-1.1,2.6-2.6
					v-81.7C243,400.2,241.9,399.1,240.4,399.1z"/>
				<path fill="#E85141" d="M260.2,399.1h-13.8c-1.4,0-2.6,1.1-2.6,2.6v81.7c0,1.4,1.1,2.6,2.6,2.6h13.8c1.4,0,2.6-1.1,2.6-2.6
					v-81.7C262.8,400.2,261.6,399.1,260.2,399.1z"/>
				<path fill="#EFC003" d="M280,399.1h-13.8c-1.4,0-2.6,1.1-2.6,2.6v81.7c0,1.4,1.1,2.6,2.6,2.6H280c1.4,0,2.6-1.1,2.6-2.6v-81.7
					C282.6,400.2,281.4,399.1,280,399.1z"/>
				<path fill="#E86C01" d="M295.6,403.4l-12,6.9c-1.2,0.7-1.6,2.3-0.9,3.5l40.8,70.8c0.7,1.2,2.3,1.6,3.5,0.9l12-6.9
					c1.2-0.7,1.6-2.3,0.9-3.5l-40.8-70.8C298.4,403.1,296.8,402.7,295.6,403.4z"/>
			</g>
			<g>
				<path fill="#EBBF04" d="M260.1,495.4h-13.8c-1.4,0-2.6,1.1-2.6,2.6v81.7c0,1.4,1.1,2.6,2.6,2.6h13.8c1.4,0,2.6-1.1,2.6-2.6V498
					C262.6,496.6,261.5,495.4,260.1,495.4z"/>
				<path fill="#7C81A5" d="M279.8,495.4H266c-1.4,0-2.6,1.1-2.6,2.6v81.7c0,1.4,1.1,2.6,2.6,2.6h13.8c1.4,0,2.6-1.1,2.6-2.6V498
					C282.4,496.6,281.3,495.4,279.8,495.4z"/>
				<path fill="#EE6401" d="M299.6,495.4h-13.8c-1.4,0-2.6,1.1-2.6,2.6v81.7c0,1.4,1.1,2.6,2.6,2.6h13.8c1.4,0,2.6-1.1,2.6-2.6V498
					C302.2,496.6,301,495.4,299.6,495.4z"/>
				<path fill="#1A162A" d="M319.4,495.4h-13.8c-1.4,0-2.6,1.1-2.6,2.6v81.7c0,1.4,1.1,2.6,2.6,2.6h13.8c1.4,0,2.6-1.1,2.6-2.6V498
					C322,496.6,320.8,495.4,319.4,495.4z"/>
				<path fill="#250D81" d="M339.2,495.4h-13.8c-1.4,0-2.6,1.1-2.6,2.6v81.7c0,1.4,1.1,2.6,2.6,2.6h13.8c1.4,0,2.6-1.1,2.6-2.6V498
					C341.7,496.6,340.6,495.4,339.2,495.4z"/>
			</g>
			<g>
				<path fill="#E45541" d="M240.3,593.2h-13.8c-1.4,0-2.6,1.1-2.6,2.6v81.7c0,1.4,1.1,2.6,2.6,2.6h13.8c1.4,0,2.6-1.1,2.6-2.6
					v-81.7C242.8,594.4,241.7,593.2,240.3,593.2z"/>
				<path fill="#0F0A67" d="M260.1,593.2h-13.8c-1.4,0-2.6,1.1-2.6,2.6v81.7c0,1.4,1.1,2.6,2.6,2.6h13.8c1.4,0,2.6-1.1,2.6-2.6
					v-81.7C262.6,594.4,261.5,593.2,260.1,593.2z"/>
				<path fill="#C52501" d="M279.8,593.2H266c-1.4,0-2.6,1.1-2.6,2.6v81.7c0,1.4,1.1,2.6,2.6,2.6h13.8c1.4,0,2.6-1.1,2.6-2.6v-81.7
					C282.4,594.4,281.3,593.2,279.8,593.2z"/>
			</g>
			<path fill="#691605" d="M344.4,378.1v10.7H219.6v-10.7h-5.2v308.6h136.8V378.1H344.4z M344.4,679.6H219.6v-90.8h124.7V679.6z
				 M344.4,582H219.6v-90.8h124.7V582z M344.4,485H219.6v-90.8h124.7V485z"/>
			<g>
				<g>
					<rect x="229.7" y="411.9" fill="#0A0544" width="1.8" height="61.2"/>
					<rect x="235.4" y="436.9" fill="#0A0544" width="1.8" height="36.1"/>
				</g>
			</g>
			<rect x="269.2" y="411.9" fill="#AF850A" width="1.8" height="61.2"/>
			<rect x="252.2" y="457.1" fill="#CD4437" width="1.8" height="15.9"/>
			<rect x="274.9" y="436.9" fill="#AF850A" width="1.8" height="36.1"/>
			<rect x="247.8" y="560.8" fill="#C29809" width="10.7" height="15.6"/>
			<rect x="250.2" y="503.3" fill="#C29809" width="1.8" height="55.3"/>
			<rect x="254.5" y="522.7" fill="#C29809" width="1.8" height="35.9"/>
			<rect x="267.6" y="560.8" fill="#686A8F" width="10.7" height="15.6"/>
			<rect x="270" y="503.3" fill="#686A8F" width="1.8" height="55.3"/>
			<rect x="287.4" y="560.8" fill="#B84703" width="10.7" height="15.6"/>
			<rect x="289.7" y="503.3" fill="#B84703" width="1.8" height="55.3"/>
			<rect x="294.1" y="522.7" fill="#B84703" width="1.8" height="35.9"/>
			<rect x="307.1" y="560.8" fill="#13101E" width="10.7" height="15.6"/>
			<rect x="309.5" y="503.3" fill="#13101E" width="1.8" height="55.3"/>
			<rect x="313.8" y="522.7" fill="#13101E" width="1.8" height="35.9"/>
			<rect x="326.9" y="560.8" fill="#120062" width="10.7" height="15.6"/>
			<rect x="329.3" y="503.3" fill="#120062" width="1.8" height="55.3"/>
			<rect x="333.6" y="522.7" fill="#120062" width="1.8" height="35.9"/>
		</g>
		<g>
			<g>
				<g>
					<rect x="359.7" y="676.4" fill="#5B1119" width="10.1" height="10.3"/>
					<rect x="482.1" y="676.4" fill="#5B1119" width="10.1" height="10.3"/>
				</g>
			</g>
			<rect x="353.2" y="530.5" fill="#69131C" width="145.4" height="148.9"/>
			<rect x="358" y="535.5" fill="#8C1B27" width="135.9" height="33.4"/>
			<rect x="358" y="572" fill="#8C1B27" width="135.9" height="33.4"/>
			<rect x="358" y="608.6" fill="#8C1B27" width="135.9" height="33.4"/>
			<rect x="358" y="645.9" fill="#8C1B27" width="135.9" height="33.4"/>
			<circle fill="#5B1119" cx="425.9" cy="552.2" r="3"/>
			<circle fill="#5B1119" cx="425.9" cy="588.7" r="3"/>
			<circle fill="#5B1119" cx="425.9" cy="625.3" r="3"/>
			<circle fill="#5B1119" cx="425.9" cy="661.8" r="3"/>
		</g>
		<g>
			<rect x="571.3" y="181" fill="#484334" width="486.1" height="10.7"/>
			<rect x="557.3" y="178.5" fill="#3A372B" width="37" height="15.8"/>
			<rect x="1034.2" y="178.5" fill="#3A372B" width="37" height="15.8"/>
			<g>
				<rect x="600.5" y="198.7" fill="#FFFFFF" width="418.1" height="317.4"/>
				<rect x="610.5" y="209.6" fill="#7EC6CA" width="397.9" height="297.4"/>
				<g>
					<polygon fill="#6ABBBD" points="639.6,321.7 639.6,390 644.3,395.2 644.3,271.6 663.7,312 663.7,366.1 673,366.1 673,321.7 
						705.3,321.7 705.3,343.5 729.7,343.5 729.7,284.1 764.1,284.1 764.1,337.1 787.1,337.1 787.1,300.7 795,292.6 825.1,292.6 
						831.5,302.3 831.5,371.8 849.5,371.8 849.5,266.7 885.4,232.8 885.4,303.1 932.7,303.1 932.7,284.1 951.4,284.1 951.4,340.3 
						962.8,340.3 962.8,289.7 977.2,271.9 1008.4,271.9 1008.4,209.6 982.1,209.6 982.1,227.7 959.1,228.5 959.1,209.6 889.9,209.6 
						889.9,222.4 882.8,222.4 882.8,209.6 862.1,209.6 862.1,237.3 850.2,240.5 850.2,209.6 746.5,209.6 746.5,219 741.6,219 
						741.6,241.2 702.1,241.2 702.1,217.8 679.3,217.8 679.3,209.6 642.7,209.6 642.7,227.7 619.8,228.5 619.8,209.6 610.5,209.6 
						610.5,305.5 630.7,305.5 					"/>
					<polygon fill="#549BA7" points="1008.4,271.9 977.2,271.9 962.8,289.7 962.8,340.3 951.4,340.3 951.4,284.1 932.7,284.1 
						932.7,303.1 885.4,303.1 885.4,232.8 849.5,266.7 849.5,371.8 831.5,371.8 831.5,302.3 825.1,292.6 795,292.6 787.1,300.7 
						787.1,337.1 764.1,337.1 764.1,284.1 729.7,284.1 729.7,343.5 705.3,343.5 705.3,321.7 673,321.7 673,366.1 663.7,366.1 
						663.7,312 644.3,271.6 644.3,395.2 639.6,390 639.6,321.7 630.7,305.5 610.5,305.5 610.5,421.5 610.5,507 1008.4,507 					"/>
				</g>
				<g opacity="0.5"  a:adobe-blending-mode="softLight">
					<polygon fill="#FFFFFF"  a:adobe-blending-mode="normal" points="837.9,208.8 658,505.8 706.7,505.8 886.6,208.8 					"/>
					<polygon fill="#FFFFFF"  a:adobe-blending-mode="normal" points="909.6,208.8 729.7,505.8 752.7,505.8 932.6,208.8 					"/>
				</g>
				<rect x="804.6" y="202.8" fill="#FFFFFF" width="9.7" height="313.3"/>
			</g>
			<g>
				<g>
					<g>
						<rect x="905.6" y="173.2" fill="#465F9C" width="122.6" height="355.6"/>
						<rect x="922.5" y="173.2" fill="#4E6DAB" width="13.4" height="355.6"/>
						<rect x="951.2" y="173.2" fill="#4E6DAB" width="13.4" height="355.6"/>
						<rect x="979.9" y="173.2" fill="#4E6DAB" width="13.4" height="355.6"/>
						<rect x="1008.6" y="173.2" fill="#4E6DAB" width="13.4" height="355.6"/>
					</g>
					<g>
						<rect x="600.2" y="173.2" fill="#465F9C" width="122.6" height="355.6"/>
						<rect x="617.2" y="173.2" fill="#4E6DAB" width="13.4" height="355.6"/>
						<rect x="645.9" y="173.2" fill="#4E6DAB" width="13.4" height="355.6"/>
						<rect x="674.6" y="173.2" fill="#4E6DAB" width="13.4" height="355.6"/>
						<rect x="703.2" y="173.2" fill="#4E6DAB" width="13.4" height="355.6"/>
					</g>
				</g>
			</g>
		</g>
		<g>
			<path fill="#276C23" d="M440,476.2c0,0-3.8-6.6-9.6-12.3c-5.8-5.7-7.9-12.9-7.9-12.9s-6,7.4-3.8,17.6
				C421,478.8,427.9,480.7,440,476.2z"/>
			<path fill="#276C23" d="M418.2,476.1c0,0,0.5-7-9.8-8c-10.3-1-18.5-4.3-18.5-4.3s4,13.3,15,14.8
				C415.9,480,418.2,476.1,418.2,476.1z"/>
			<path fill="#3C8522" d="M422.4,475.5c0,0,2.2-8.2-5.7-12.6c-7.9-4.4-11.2-8-11.2-8S401.8,475.1,422.4,475.5z"/>
			<path fill="#276C23" d="M430,476.1c0,0-0.5-7,9.8-8c10.3-1,18.5-4.3,18.5-4.3s-4,13.3-15,14.8C432.3,480,430,476.1,430,476.1z"/>
			<path fill="#3C8522" d="M425.8,475.5c0,0-2.2-8.2,5.7-12.6c7.9-4.4,11.2-8,11.2-8S446.4,475.1,425.8,475.5z"/>
			<g>
				<path fill="#4C1F07" d="M419.7,488.4v-0.9c0,0,0-16.3,0-32.2l0,0c0-13.5-7.3-17.9-9-18.9l0,0c-0.2-0.1-0.3-0.2-0.3-0.2l0,0
					l0.7-1.7c0.2,0,10.6,4.5,10.6,20.8l0,0c0,13.6,0,27.6,0,31.3l0,0h5.8c0-3.5,0-16,0-23.7l0,0c0-9.4,5.2-17.1,12.4-17.1l0,0v1.9
					c-2.9,0-5.4,1.6-7.4,4.3l0,0c-1.9,2.7-3.1,6.6-3.1,11l0,0c0,4.6,0,10.7,0,15.8l0,0c0,5,0,8.9,0,8.9l0,0v0.9H419.7L419.7,488.4z"
					/>
			</g>
			<path fill="#5FAC21" d="M428.7,471.1c0,0,1.3-4.1,9-5.2s13.8-3.6,13.8-3.6s0.2,6.8-8.6,10.5C434,476.6,428.7,471.1,428.7,471.1z"
				/>
			<path fill="#5FAC21" d="M421.1,471.1c0,0-1.3-4.1-9-5.2s-13.8-3.6-13.8-3.6s-0.2,6.8,8.6,10.5
				C415.8,476.6,421.1,471.1,421.1,471.1z"/>
			<g>
				<polygon fill="#4C1F07" points="447.4,529.8 404.5,529.8 395,474.6 456.8,474.6 				"/>
				<polygon fill="#C5831E" points="455.8,479.1 396,479.1 392.2,476 459.6,476 				"/>
				<polygon fill="#9F5D20" points="460.3,477.5 391.6,477.5 387.3,473.5 464.6,473.5 				"/>
			</g>
			<g>
				<g>
					<path fill="#F71F25" d="M409,436.1c0,0-1.9-2.7,0.3-7.7c2.2-5,6.6-9,6.6-10.3c0-1.2,5.1,4.2,2.7,12.7
						C416.3,439.3,412.2,440,409,436.1z"/>
					<path fill="#B20D08" d="M415.9,418c0,0.1,3.9,5.4,1,12c-2.3,7.2-3.9,5.2-3.9,5.2s-1.6-5,2-11.2c0,0-3.1,2.2-4,8.9
						c-0.3,1.9-0.6,3.2-1,4.1c3,2.7,6.6,1.4,8.7-6.3C421,422.3,415.9,416.8,415.9,418z"/>
				</g>
				<g>
					<path fill="#F71F25" d="M410.2,435.1c0,0,0.8-3.3,6.1-4.8c5.3-1.6,11.2-0.9,12.1-1.7c0.9-0.8,0.1,6.6-7.9,10.4
						C412.5,442.7,409.3,440.1,410.2,435.1z"/>
					<path fill="#B20D08" d="M428.4,428.6c0,0-1.5,6.5-8.5,8.6c-7,2.9-6.4,0.4-6.4,0.4s2.7-4.4,9.8-5.8c0,0-3.7-0.9-9.4,2.8
						c-1.6,1-2.9,1.6-3.8,1.9c-0.1,4.1,3.2,5.9,10.4,2.5C428.5,435.1,429.3,427.7,428.4,428.6z"/>
				</g>
				<g>
					<path fill="#F71F25" d="M413.1,435.7c0,0,3.3-0.7,7,3.4c3.7,4.1,5.6,9.7,6.7,10.2c1.1,0.5-5.9,2.9-12.7-2.7
						C407.2,441,408.2,437,413.1,435.7z"/>
					<path fill="#B20D08" d="M426.8,449.3c-0.1,0-6.5,1.4-11.4-4c-5.6-5.1-3.2-5.6-3.2-5.6s5.2,0.6,9.4,6.3c0,0-0.8-3.7-6.5-7.3
						c-1.6-1-2.7-1.9-3.3-2.6c-3.7,1.7-4,5.4,2.2,10.5C420.8,452.2,427.9,449.8,426.8,449.3z"/>
				</g>
				<g>
					<path fill="#F71F25" d="M413.8,438.5c0,0,2,2.7-0.1,7.7c-2.1,5.1-6.4,9.2-6.4,10.4c0.1,1.2-5.2-4.1-3.1-12.7
						C406.4,435.5,410.5,434.7,413.8,438.5z"/>
					<path fill="#B20D08" d="M407.3,456.7c0-0.1-4-5.3-1.3-12c2.2-7.2,3.7-5.3,3.7-5.3s1.7,4.9-1.7,11.2c0,0,3-2.3,3.8-9
						c0.2-1.9,0.6-3.2,0.9-4.1c-3.1-2.7-6.6-1.3-8.5,6.5C402.1,452.6,407.4,457.9,407.3,456.7z"/>
				</g>
				<g>
					<path fill="#F71F25" d="M411.5,440.3c0,0-1.6,3-7,3.2c-5.5,0.3-11.1-1.8-12.2-1.3c-1.1,0.6,1.5-6.4,10.1-8.2
						C411.1,432.4,413.6,435.7,411.5,440.3z"/>
					<path fill="#B20D08" d="M392.3,442.3c0,0,3-5.9,10.3-6.3c7.5-1.1,6.4,1.1,6.4,1.1s-3.7,3.6-10.9,3.3c0,0,3.4,1.7,9.8-0.4
						c1.8-0.6,3.2-0.9,4.1-0.9c1.1-3.9-1.7-6.5-9.5-4.9C393.7,435.9,391.2,442.9,392.3,442.3z"/>
				</g>
				<g>
					<path fill="#F71F25" d="M408.9,439.1c0,0-3.3-0.1-5.9-5c-2.6-4.8-3.1-10.8-4.1-11.5c-1-0.7,6.4-1.4,11.7,5.7
						C415.9,435.3,413.9,438.9,408.9,439.1z"/>
					<path fill="#B20D08" d="M398.9,422.5c0,0,6.6,0.2,10.1,6.6c4.2,6.3,1.7,6.2,1.7,6.2s-4.9-1.8-7.6-8.4c0,0-0.1,3.8,4.6,8.7
						c1.3,1.4,2.1,2.5,2.6,3.3c4-0.7,5.2-4.3,0.4-10.7C405.3,421.1,397.9,421.8,398.9,422.5z"/>
				</g>
				<circle fill="#FFC713" cx="410.9" cy="436.9" r="5"/>
			</g>
			<g>
				<g>
					<path fill="#F71F25" d="M439.9,447.8c0,0-2.4,1.8-7-0.1c-4.6-1.9-8.3-5.8-9.4-5.8c-1.1,0.1,3.7-4.7,11.5-2.8
						C442.6,441.1,443.3,444.8,439.9,447.8z"/>
					<path fill="#B20D08" d="M423.4,441.9c0.1,0,4.8-3.7,10.8-1.1c6.5,2,4.8,3.4,4.8,3.4s-4.4,1.5-10.2-1.5c0,0,2.1,2.7,8.2,3.5
						c1.7,0.2,2.9,0.5,3.7,0.8c2.4-2.8,1.2-6-5.9-7.7C427.1,437.2,422.3,442,423.4,441.9z"/>
				</g>
				<g>
					<path fill="#F71F25" d="M438.9,446.7c0,0-3-0.7-4.5-5.4c-1.5-4.7-1-10.1-1.8-10.9c-0.8-0.8,6-0.3,9.6,6.9
						C445.8,444.4,443.5,447.4,438.9,446.7z"/>
					<path fill="#B20D08" d="M432.6,430.4c0,0,5.9,1.2,7.9,7.5c2.8,6.2,0.5,5.8,0.5,5.8s-4.1-2.4-5.5-8.7c0,0-0.7,3.3,2.7,8.4
						c1,1.5,1.5,2.5,1.8,3.4c3.7,0,5.3-3,2-9.5C438.6,430.1,431.9,429.6,432.6,430.4z"/>
				</g>
				<g>
					<path fill="#F71F25" d="M439.4,444.1c0,0-0.7-3,2.9-6.4c3.6-3.4,8.7-5.3,9.1-6.3c0.4-1,2.8,5.3-2.1,11.6
						C444.4,449.3,440.7,448.5,439.4,444.1z"/>
					<path fill="#B20D08" d="M451.4,431.4c0,0,1.4,5.8-3.3,10.4c-4.4,5.2-5,3-5,3s0.4-4.7,5.5-8.7c0,0-3.3,0.8-6.5,6.1
						c-0.9,1.5-1.7,2.5-2.3,3.1c1.6,3.3,5,3.5,9.5-2.2C454.2,436.7,451.8,430.4,451.4,431.4z"/>
				</g>
				<g>
					<path fill="#F71F25" d="M442,443.4c0,0,2.4-1.9,7-0.1c4.6,1.8,8.5,5.6,9.6,5.5c1.1-0.1-3.6,4.8-11.4,3
						C439.4,450.2,438.5,446.5,442,443.4z"/>
					<path fill="#B20D08" d="M458.6,448.8c-0.1,0-4.7,3.8-10.8,1.4c-6.6-1.8-4.8-3.3-4.8-3.3s4.4-1.6,10.2,1.3c0,0-2.1-2.7-8.2-3.2
						c-1.7-0.2-2.9-0.4-3.8-0.7c-2.3,2.9-1,6,6.1,7.6C455,453.6,459.7,448.8,458.6,448.8z"/>
				</g>
				<g>
					<path fill="#F71F25" d="M443.7,445.4c0,0,2.7,1.4,3.1,6.3c0.4,4.9-1.4,10.1-0.9,11c0.5,1-5.8-1.2-7.6-9
						C436.5,446,439.4,443.7,443.7,445.4z"/>
					<path fill="#B20D08" d="M445.9,462.7c0,0-5.4-2.6-5.9-9.2c-1.2-6.7,0.9-5.8,0.9-5.8s3.4,3.3,3.2,9.8c0,0,1.5-3.1-0.6-8.8
						c-0.6-1.6-0.9-2.8-0.9-3.7c-3.6-0.9-5.9,1.7-4.3,8.7C440,461.6,446.4,463.7,445.9,462.7z"/>
				</g>
				<g>
					<path fill="#F71F25" d="M442.6,447.8c0,0-0.1,3-4.4,5.5c-4.3,2.4-9.7,3-10.3,3.9c-0.6,0.9-1.4-5.8,4.8-10.7
						C439,441.5,442.4,443.2,442.6,447.8z"/>
					<path fill="#B20D08" d="M427.9,457.2c0,0,0-6,5.7-9.3c5.6-4,5.6-1.7,5.6-1.7s-1.5,4.5-7.5,7.1c0,0,3.4,0,7.7-4.3
						c1.2-1.2,2.2-2,3-2.4c-0.7-3.6-4-4.6-9.7-0.1C426.4,451.4,427.2,458.1,427.9,457.2z"/>
				</g>
				<circle fill="#FFC713" cx="440.6" cy="446" r="4.5"/>
			</g>
		</g>
		<g>
			<g>
				<path fill="#282472" d="M240.4,399.1h-13.8c-1.4,0-2.6,1.1-2.6,2.6v81.7c0,1.4,1.1,2.6,2.6,2.6h13.8c1.4,0,2.6-1.1,2.6-2.6
					v-81.7C243,400.2,241.9,399.1,240.4,399.1z"/>
				<path fill="#F0877B" d="M260.2,399.1h-13.8c-1.4,0-2.6,1.1-2.6,2.6v81.7c0,1.4,1.1,2.6,2.6,2.6h13.8c1.4,0,2.6-1.1,2.6-2.6
					v-81.7C262.8,400.2,261.6,399.1,260.2,399.1z"/>
				<path fill="#F7D33B" d="M280,399.1h-13.8c-1.4,0-2.6,1.1-2.6,2.6v81.7c0,1.4,1.1,2.6,2.6,2.6H280c1.4,0,2.6-1.1,2.6-2.6v-81.7
					C282.6,400.2,281.4,399.1,280,399.1z"/>
				<path fill="#EF8E38" d="M295.6,403.4l-12,6.9c-1.2,0.7-1.6,2.3-0.9,3.5l40.8,70.8c0.7,1.2,2.3,1.6,3.5,0.9l12-6.9
					c1.2-0.7,1.6-2.3,0.9-3.5l-40.8-70.8C298.4,403.1,296.8,402.7,295.6,403.4z"/>
			</g>
			<g>
				<path fill="#F4D13C" d="M260.1,495.4h-13.8c-1.4,0-2.6,1.1-2.6,2.6v81.7c0,1.4,1.1,2.6,2.6,2.6h13.8c1.4,0,2.6-1.1,2.6-2.6V498
					C262.6,496.6,261.5,495.4,260.1,495.4z"/>
				<path fill="#ABACAE" d="M279.8,495.4H266c-1.4,0-2.6,1.1-2.6,2.6v81.7c0,1.4,1.1,2.6,2.6,2.6h13.8c1.4,0,2.6-1.1,2.6-2.6V498
					C282.4,496.6,281.3,495.4,279.8,495.4z"/>
				<path fill="#F4893A" d="M299.6,495.4h-13.8c-1.4,0-2.6,1.1-2.6,2.6v81.7c0,1.4,1.1,2.6,2.6,2.6h13.8c1.4,0,2.6-1.1,2.6-2.6V498
					C302.2,496.6,301,495.4,299.6,495.4z"/>
				<path fill="#2A2733" d="M319.4,495.4h-13.8c-1.4,0-2.6,1.1-2.6,2.6v81.7c0,1.4,1.1,2.6,2.6,2.6h13.8c1.4,0,2.6-1.1,2.6-2.6V498
					C322,496.6,320.8,495.4,319.4,495.4z"/>
				<path fill="#412E89" d="M339.2,495.4h-13.8c-1.4,0-2.6,1.1-2.6,2.6v81.7c0,1.4,1.1,2.6,2.6,2.6h13.8c1.4,0,2.6-1.1,2.6-2.6V498
					C341.7,496.6,340.6,495.4,339.2,495.4z"/>
			</g>
			<g>
				<path fill="#ED897B" d="M240.3,593.2h-13.8c-1.4,0-2.6,1.1-2.6,2.6v81.7c0,1.4,1.1,2.6,2.6,2.6h13.8c1.4,0,2.6-1.1,2.6-2.6
					v-81.7C242.8,594.4,241.7,593.2,240.3,593.2z"/>
				<path fill="#282570" d="M260.1,593.2h-13.8c-1.4,0-2.6,1.1-2.6,2.6v81.7c0,1.4,1.1,2.6,2.6,2.6h13.8c1.4,0,2.6-1.1,2.6-2.6
					v-81.7C262.6,594.4,261.5,593.2,260.1,593.2z"/>
				<path fill="#CE4E31" d="M279.8,593.2H266c-1.4,0-2.6,1.1-2.6,2.6v81.7c0,1.4,1.1,2.6,2.6,2.6h13.8c1.4,0,2.6-1.1,2.6-2.6v-81.7
					C282.4,594.4,281.3,593.2,279.8,593.2z"/>
			</g>
			<path fill="#722E20" d="M344.4,378.1v10.7H219.6v-10.7h-5.2v308.6h136.8V378.1H344.4z M344.4,679.6H219.6v-90.8h124.7V679.6z
				 M344.4,582H219.6v-90.8h124.7V582z M344.4,485H219.6v-90.8h124.7V485z"/>
			<g>
				<g>
					<rect x="229.7" y="411.9" fill="#1C174D" width="1.8" height="61.2"/>
					<rect x="235.4" y="436.9" fill="#1C174D" width="1.8" height="36.1"/>
				</g>
			</g>
			<rect x="269.2" y="411.9" fill="#B89735" width="1.8" height="61.2"/>
			<rect x="252.2" y="457.1" fill="#D6746B" width="1.8" height="15.9"/>
			<rect x="274.9" y="436.9" fill="#B89735" width="1.8" height="36.1"/>
			<rect x="247.8" y="560.8" fill="#CBAA38" width="10.7" height="15.6"/>
			<rect x="250.2" y="503.3" fill="#CBAA38" width="1.8" height="55.3"/>
			<rect x="254.5" y="522.7" fill="#CBAA38" width="1.8" height="35.9"/>
			<rect x="267.6" y="560.8" fill="#929298" width="10.7" height="15.6"/>
			<rect x="270" y="503.3" fill="#929298" width="1.8" height="55.3"/>
			<rect x="287.4" y="560.8" fill="#C16730" width="10.7" height="15.6"/>
			<rect x="289.7" y="503.3" fill="#C16730" width="1.8" height="55.3"/>
			<rect x="294.1" y="522.7" fill="#C16730" width="1.8" height="35.9"/>
			<rect x="307.1" y="560.8" fill="#211F27" width="10.7" height="15.6"/>
			<rect x="309.5" y="503.3" fill="#211F27" width="1.8" height="55.3"/>
			<rect x="313.8" y="522.7" fill="#211F27" width="1.8" height="35.9"/>
			<rect x="326.9" y="560.8" fill="#28196B" width="10.7" height="15.6"/>
			<rect x="329.3" y="503.3" fill="#28196B" width="1.8" height="55.3"/>
			<rect x="333.6" y="522.7" fill="#28196B" width="1.8" height="35.9"/>
		</g>
		<g>
			<circle fill="#3F5793" cx="395" cy="191.7" r="46.2"/>
			<g>
				<g>
					<g>
						<circle fill="#FFFFFF" cx="395" cy="191.7" r="37.7"/>
					</g>
				</g>
			</g>
			<circle fill="#A0C2C6" cx="395" cy="191.7" r="3.6"/>
			<rect x="394.2" y="170" fill="#A0C2C6" width="1.6" height="21.7"/>
			
				<rect x="404.6" y="187.8" transform="matrix(-0.7502 0.6612 -0.6612 -0.7502 844.0728 88.0487)" fill="#A0C2C6" width="1.6" height="31.4"/>
			<rect x="394.6" y="156.5" fill="#A0C2C6" width="0.8" height="7.1"/>
			<rect x="423.2" y="191.3" fill="#A0C2C6" width="7.1" height="0.8"/>
			<rect x="394.6" y="219.8" fill="#A0C2C6" width="0.8" height="7.1"/>
			<rect x="359.8" y="191.3" fill="#A0C2C6" width="7.1" height="0.8"/>
		</g>
		<g>
			<g>
				<g>
					<rect x="359.7" y="676.4" fill="#6B3F1D" width="10.1" height="10.3"/>
					<rect x="482.1" y="676.4" fill="#6B3F1D" width="10.1" height="10.3"/>
				</g>
			</g>
			<rect x="353.2" y="530.5" fill="#79471F" width="145.4" height="148.9"/>
			<rect x="358" y="535.5" fill="#9C5C2B" width="135.9" height="33.4"/>
			<rect x="358" y="572" fill="#9C5C2B" width="135.9" height="33.4"/>
			<rect x="358" y="608.6" fill="#9C5C2B" width="135.9" height="33.4"/>
			<rect x="358" y="645.9" fill="#9C5C2B" width="135.9" height="33.4"/>
			<circle fill="#6B3F1D" cx="425.9" cy="552.2" r="3"/>
			<circle fill="#6B3F1D" cx="425.9" cy="588.7" r="3"/>
			<circle fill="#6B3F1D" cx="425.9" cy="625.3" r="3"/>
			<circle fill="#6B3F1D" cx="425.9" cy="661.8" r="3"/>
		</g>
		<g>
			<path fill="#276C23" d="M440,476.2c0,0-3.8-6.6-9.6-12.3c-5.8-5.7-7.9-12.9-7.9-12.9s-6,7.4-3.8,17.6
				C421,478.8,427.9,480.7,440,476.2z"/>
			<path fill="#276C23" d="M418.2,476.1c0,0,0.5-7-9.8-8c-10.3-1-18.5-4.3-18.5-4.3s4,13.3,15,14.8
				C415.9,480,418.2,476.1,418.2,476.1z"/>
			<path fill="#3C8522" d="M422.4,475.5c0,0,2.2-8.2-5.7-12.6c-7.9-4.4-11.2-8-11.2-8S401.8,475.1,422.4,475.5z"/>
			<path fill="#276C23" d="M430,476.1c0,0-0.5-7,9.8-8c10.3-1,18.5-4.3,18.5-4.3s-4,13.3-15,14.8C432.3,480,430,476.1,430,476.1z"/>
			<path fill="#3C8522" d="M425.8,475.5c0,0-2.2-8.2,5.7-12.6c7.9-4.4,11.2-8,11.2-8S446.4,475.1,425.8,475.5z"/>
			<g>
				<path fill="#4C1F07" d="M419.7,488.4v-0.9c0,0,0-16.3,0-32.2l0,0c0-13.5-7.3-17.9-9-18.9l0,0c-0.2-0.1-0.3-0.2-0.3-0.2l0,0
					l0.7-1.7c0.2,0,10.6,4.5,10.6,20.8l0,0c0,13.6,0,27.6,0,31.3l0,0h5.8c0-3.5,0-16,0-23.7l0,0c0-9.4,5.2-17.1,12.4-17.1l0,0v1.9
					c-2.9,0-5.4,1.6-7.4,4.3l0,0c-1.9,2.7-3.1,6.6-3.1,11l0,0c0,4.6,0,10.7,0,15.8l0,0c0,5,0,8.9,0,8.9l0,0v0.9H419.7L419.7,488.4z"
					/>
			</g>
			<path fill="#5FAC21" d="M428.7,471.1c0,0,1.3-4.1,9-5.2s13.8-3.6,13.8-3.6s0.2,6.8-8.6,10.5C434,476.6,428.7,471.1,428.7,471.1z"
				/>
			<path fill="#5FAC21" d="M421.1,471.1c0,0-1.3-4.1-9-5.2s-13.8-3.6-13.8-3.6s-0.2,6.8,8.6,10.5
				C415.8,476.6,421.1,471.1,421.1,471.1z"/>
			<g>
				<polygon fill="#4C1F07" points="447.4,529.8 404.5,529.8 395,474.6 456.8,474.6 				"/>
				<polygon fill="#C5831E" points="455.8,479.1 396,479.1 392.2,476 459.6,476 				"/>
				<polygon fill="#9F5D20" points="460.3,477.5 391.6,477.5 387.3,473.5 464.6,473.5 				"/>
			</g>
			<g>
				<g>
					<path fill="#F71F25" d="M409,436.1c0,0-1.9-2.7,0.3-7.7c2.2-5,6.6-9,6.6-10.3c0-1.2,5.1,4.2,2.7,12.7
						C416.3,439.3,412.2,440,409,436.1z"/>
					<path fill="#B20D08" d="M415.9,418c0,0.1,3.9,5.4,1,12c-2.3,7.2-3.9,5.2-3.9,5.2s-1.6-5,2-11.2c0,0-3.1,2.2-4,8.9
						c-0.3,1.9-0.6,3.2-1,4.1c3,2.7,6.6,1.4,8.7-6.3C421,422.3,415.9,416.8,415.9,418z"/>
				</g>
				<g>
					<path fill="#F71F25" d="M410.2,435.1c0,0,0.8-3.3,6.1-4.8c5.3-1.6,11.2-0.9,12.1-1.7c0.9-0.8,0.1,6.6-7.9,10.4
						C412.5,442.7,409.3,440.1,410.2,435.1z"/>
					<path fill="#B20D08" d="M428.4,428.6c0,0-1.5,6.5-8.5,8.6c-7,2.9-6.4,0.4-6.4,0.4s2.7-4.4,9.8-5.8c0,0-3.7-0.9-9.4,2.8
						c-1.6,1-2.9,1.6-3.8,1.9c-0.1,4.1,3.2,5.9,10.4,2.5C428.5,435.1,429.3,427.7,428.4,428.6z"/>
				</g>
				<g>
					<path fill="#F71F25" d="M413.1,435.7c0,0,3.3-0.7,7,3.4c3.7,4.1,5.6,9.7,6.7,10.2c1.1,0.5-5.9,2.9-12.7-2.7
						C407.2,441,408.2,437,413.1,435.7z"/>
					<path fill="#B20D08" d="M426.8,449.3c-0.1,0-6.5,1.4-11.4-4c-5.6-5.1-3.2-5.6-3.2-5.6s5.2,0.6,9.4,6.3c0,0-0.8-3.7-6.5-7.3
						c-1.6-1-2.7-1.9-3.3-2.6c-3.7,1.7-4,5.4,2.2,10.5C420.8,452.2,427.9,449.8,426.8,449.3z"/>
				</g>
				<g>
					<path fill="#F71F25" d="M413.8,438.5c0,0,2,2.7-0.1,7.7c-2.1,5.1-6.4,9.2-6.4,10.4c0.1,1.2-5.2-4.1-3.1-12.7
						C406.4,435.5,410.5,434.7,413.8,438.5z"/>
					<path fill="#B20D08" d="M407.3,456.7c0-0.1-4-5.3-1.3-12c2.2-7.2,3.7-5.3,3.7-5.3s1.7,4.9-1.7,11.2c0,0,3-2.3,3.8-9
						c0.2-1.9,0.6-3.2,0.9-4.1c-3.1-2.7-6.6-1.3-8.5,6.5C402.1,452.6,407.4,457.9,407.3,456.7z"/>
				</g>
				<g>
					<path fill="#F71F25" d="M411.5,440.3c0,0-1.6,3-7,3.2c-5.5,0.3-11.1-1.8-12.2-1.3c-1.1,0.6,1.5-6.4,10.1-8.2
						C411.1,432.4,413.6,435.7,411.5,440.3z"/>
					<path fill="#B20D08" d="M392.3,442.3c0,0,3-5.9,10.3-6.3c7.5-1.1,6.4,1.1,6.4,1.1s-3.7,3.6-10.9,3.3c0,0,3.4,1.7,9.8-0.4
						c1.8-0.6,3.2-0.9,4.1-0.9c1.1-3.9-1.7-6.5-9.5-4.9C393.7,435.9,391.2,442.9,392.3,442.3z"/>
				</g>
				<g>
					<path fill="#F71F25" d="M408.9,439.1c0,0-3.3-0.1-5.9-5c-2.6-4.8-3.1-10.8-4.1-11.5c-1-0.7,6.4-1.4,11.7,5.7
						C415.9,435.3,413.9,438.9,408.9,439.1z"/>
					<path fill="#B20D08" d="M398.9,422.5c0,0,6.6,0.2,10.1,6.6c4.2,6.3,1.7,6.2,1.7,6.2s-4.9-1.8-7.6-8.4c0,0-0.1,3.8,4.6,8.7
						c1.3,1.4,2.1,2.5,2.6,3.3c4-0.7,5.2-4.3,0.4-10.7C405.3,421.1,397.9,421.8,398.9,422.5z"/>
				</g>
				<circle fill="#FFC713" cx="410.9" cy="436.9" r="5"/>
			</g>
			<g>
				<g>
					<path fill="#F71F25" d="M439.9,447.8c0,0-2.4,1.8-7-0.1c-4.6-1.9-8.3-5.8-9.4-5.8c-1.1,0.1,3.7-4.7,11.5-2.8
						C442.6,441.1,443.3,444.8,439.9,447.8z"/>
					<path fill="#B20D08" d="M423.4,441.9c0.1,0,4.8-3.7,10.8-1.1c6.5,2,4.8,3.4,4.8,3.4s-4.4,1.5-10.2-1.5c0,0,2.1,2.7,8.2,3.5
						c1.7,0.2,2.9,0.5,3.7,0.8c2.4-2.8,1.2-6-5.9-7.7C427.1,437.2,422.3,442,423.4,441.9z"/>
				</g>
				<g>
					<path fill="#F71F25" d="M438.9,446.7c0,0-3-0.7-4.5-5.4c-1.5-4.7-1-10.1-1.8-10.9c-0.8-0.8,6-0.3,9.6,6.9
						C445.8,444.4,443.5,447.4,438.9,446.7z"/>
					<path fill="#B20D08" d="M432.6,430.4c0,0,5.9,1.2,7.9,7.5c2.8,6.2,0.5,5.8,0.5,5.8s-4.1-2.4-5.5-8.7c0,0-0.7,3.3,2.7,8.4
						c1,1.5,1.5,2.5,1.8,3.4c3.7,0,5.3-3,2-9.5C438.6,430.1,431.9,429.6,432.6,430.4z"/>
				</g>
				<g>
					<path fill="#F71F25" d="M439.4,444.1c0,0-0.7-3,2.9-6.4c3.6-3.4,8.7-5.3,9.1-6.3c0.4-1,2.8,5.3-2.1,11.6
						C444.4,449.3,440.7,448.5,439.4,444.1z"/>
					<path fill="#B20D08" d="M451.4,431.4c0,0,1.4,5.8-3.3,10.4c-4.4,5.2-5,3-5,3s0.4-4.7,5.5-8.7c0,0-3.3,0.8-6.5,6.1
						c-0.9,1.5-1.7,2.5-2.3,3.1c1.6,3.3,5,3.5,9.5-2.2C454.2,436.7,451.8,430.4,451.4,431.4z"/>
				</g>
				<g>
					<path fill="#F71F25" d="M442,443.4c0,0,2.4-1.9,7-0.1c4.6,1.8,8.5,5.6,9.6,5.5c1.1-0.1-3.6,4.8-11.4,3
						C439.4,450.2,438.5,446.5,442,443.4z"/>
					<path fill="#B20D08" d="M458.6,448.8c-0.1,0-4.7,3.8-10.8,1.4c-6.6-1.8-4.8-3.3-4.8-3.3s4.4-1.6,10.2,1.3c0,0-2.1-2.7-8.2-3.2
						c-1.7-0.2-2.9-0.4-3.8-0.7c-2.3,2.9-1,6,6.1,7.6C455,453.6,459.7,448.8,458.6,448.8z"/>
				</g>
				<g>
					<path fill="#F71F25" d="M443.7,445.4c0,0,2.7,1.4,3.1,6.3c0.4,4.9-1.4,10.1-0.9,11c0.5,1-5.8-1.2-7.6-9
						C436.5,446,439.4,443.7,443.7,445.4z"/>
					<path fill="#B20D08" d="M445.9,462.7c0,0-5.4-2.6-5.9-9.2c-1.2-6.7,0.9-5.8,0.9-5.8s3.4,3.3,3.2,9.8c0,0,1.5-3.1-0.6-8.8
						c-0.6-1.6-0.9-2.8-0.9-3.7c-3.6-0.9-5.9,1.7-4.3,8.7C440,461.6,446.4,463.7,445.9,462.7z"/>
				</g>
				<g>
					<path fill="#F71F25" d="M442.6,447.8c0,0-0.1,3-4.4,5.5c-4.3,2.4-9.7,3-10.3,3.9c-0.6,0.9-1.4-5.8,4.8-10.7
						C439,441.5,442.4,443.2,442.6,447.8z"/>
					<path fill="#B20D08" d="M427.9,457.2c0,0,0-6,5.7-9.3c5.6-4,5.6-1.7,5.6-1.7s-1.5,4.5-7.5,7.1c0,0,3.4,0,7.7-4.3
						c1.2-1.2,2.2-2,3-2.4c-0.7-3.6-4-4.6-9.7-0.1C426.4,451.4,427.2,458.1,427.9,457.2z"/>
				</g>
				<circle fill="#FFC713" cx="440.6" cy="446" r="4.5"/>
			</g>
		</g>
		<g>
			<circle fill="#3F5793" cx="395" cy="191.7" r="46.2"/>
			<g>
				<g>
					<g>
						<circle fill="#FFFFFF" cx="395" cy="191.7" r="37.7"/>
					</g>
				</g>
			</g>
			<circle fill="#0D1C50" cx="395" cy="191.7" r="3.6"/>
			<rect x="394.2" y="170" fill="#0D1C50" width="1.6" height="21.7"/>
			
				<rect x="404.6" y="187.8" transform="matrix(-0.7502 0.6612 -0.6612 -0.7502 844.0728 88.0487)" fill="#0D1C50" width="1.6" height="31.4"/>
			<rect x="394.6" y="156.5" fill="#0D1C50" width="0.8" height="7.1"/>
			<rect x="423.2" y="191.3" fill="#0D1C50" width="7.1" height="0.8"/>
			<rect x="394.6" y="219.8" fill="#0D1C50" width="0.8" height="7.1"/>
			<rect x="359.8" y="191.3" fill="#0D1C50" width="7.1" height="0.8"/>
		</g>
		<path fill="#3C7F8C" d="M962,773.2H536c-4.8,0-8.7-3.9-8.7-8.7l0,0c0-4.8,3.9-8.7,8.7-8.7h426c4.8,0,8.7,3.9,8.7,8.7l0,0
			C970.7,769.3,966.8,773.2,962,773.2z"/>
		<path fill="#3C7F8C" d="M1079.8,731.5H813.9c-4.8,0-8.7-3.9-8.7-8.7l0,0c0-4.8,3.9-8.7,8.7-8.7h265.9c4.8,0,8.7,3.9,8.7,8.7l0,0
			C1088.5,727.6,1084.6,731.5,1079.8,731.5z"/>
		<g>
			<path fill="#495210" d="M934.8,644.8l120.1,10.6c0.2,0,0.4,0,0.7,0c2.4,0.1,4.7,0,6.9-0.3c14.2-2.1,25.6-13.7,26.9-28.6
				l16.2-183.8c1.3-14.9-7.9-28.3-21.5-32.9c-2.1-0.7-4.4-1.2-6.7-1.5c-0.2,0-0.4,0-0.7-0.1l-74.6-0.8l-32-0.3l-17.8-0.2
				c-17.5-1.5-29.2,8.6-30.7,26.1l-15.6,177.3C904.4,627.9,917.3,643.3,934.8,644.8z"/>
			<path fill="#3B440E" d="M1057.1,438.4L1041,622.2c-1.3,14.9,7.9,28.3,21.5,32.9c14.2-2.1,25.6-13.7,26.9-28.6l16.2-183.8
				c1.3-14.9-7.9-28.3-21.5-32.9C1069.9,411.9,1058.4,423.4,1057.1,438.4z"/>
			<path fill="#3B440E" d="M863.9,560.8v97.4c0,17.6,19,31.8,42.5,31.8h7.6V584.4c0-0.4,0-0.8,0-1.2c-0.5-9.7-11-16.7-20.6-22.3
				c-1.1-0.2-2.3-0.2-3.5-0.2H863.9z"/>
			<path fill="#3B440E" d="M837.6,586.1v4.9c2.5,1.3,5.3,2,8.3,2h49.9c6.4,0,11.9-3.3,14.9-8.1c1.5-2.4,2.3-5.1,2.3-8
				c0-4.5-1.9-8.5-5-11.4c-2.5-2.4-5.8-4-9.5-4.5c-0.8-0.2-1.7-0.2-2.6-0.2H846c-0.6,0-1.1,0-1.7,0.1
				C840.2,566.7,837.6,575.8,837.6,586.1z"/>
			<rect x="854.7" y="625" fill="#4E5910" width="132.8" height="98.1"/>
			<path fill="#4E5910" d="M837.6,586.1v105.2c0,17.6,5.7,31.8,12.7,31.8h3.8c7,0,12.7-14.2,12.7-31.8V586.1c0-0.4,0-0.8,0-1.2
				c-0.1-9.7-2-18.4-4.9-23.9c-0.3-0.2-0.7-0.2-1.1-0.2h-18.3c0,0,0,0.1,0,0.1C837.1,560.8,837.6,575.8,837.6,586.1z"/>
			<path opacity="0.6" fill="#070606" d="M963.6,581.3c4.9-1.5,33.4,0,35-27.7c0.6-11,8.7-50.4,10.1-65.3
				c1.4-15-14.7-23.1-15.8-33.4c-1.8-16.3,4.7-36.2,9.1-47.4l-32-0.3c-4.9,6.3-9,14.6-11.4,24.6
				C950.7,464.8,958.7,582.8,963.6,581.3z"/>
			<path fill="#A6127F" d="M977.6,439.3l-29.3-1.2l-11.4-9.5c0,0,49.1-0.3,47.7,3.6c-1.4,3.9-6.2,7.1-6.2,7.1"/>
			<path fill="#F3B78E" d="M945.2,732.5c0,0,4.3,16.2,3,21c-0.8,2.7-4.8,6.6-8.6,6.3c-3.8-0.3-6.3-2-6.9-6.3
				c-0.5-3.5,0.1-20.4,3.3-21.3C939,731.2,942.4,731.4,945.2,732.5z"/>
			<path fill="#F3B78E" d="M919.2,728.7c0,0,6.1,15.5,5.4,20.5c-0.4,2.8-4,7.1-7.8,7.2c-3.8,0.1-6.5-1.3-7.6-5.5
				c-0.9-3.4-2.3-20.3,0.8-21.5C912.9,728.2,916.2,728,919.2,728.7z"/>
			<polygon opacity="0.5" fill="#070606" points="938.9,723.1 956.4,723.1 956.4,636.3 942.5,638.1 			"/>
			<polygon opacity="0.5" fill="#070606" points="907.5,723.1 925.1,723.1 925.1,638.6 911.1,640.4 			"/>
			<path fill="#2C1B1B" d="M948.1,747.1c0,0,1,6.2,0,11.1c-0.6,2.8-3.9,6.3-7.7,6.3c-3.8,0-7-2.1-7.8-6.3c-0.7-3.7-1.2-7.9-0.2-10.6
				c0.6-1.5,1.3,5.9,8,5.9C947.1,753.4,946.7,746.6,948.1,747.1z"/>
			<path fill="#2C1B1B" d="M924.2,744.8c0,0,1.7,6,1.3,11c-0.2,2.8-3.2,6.7-7,7.2c-3.8,0.5-7.2-1.3-8.5-5.4
				c-1.1-3.6-2.1-7.7-1.4-10.5c0.4-1.6,1.9,5.7,8.6,4.9C923.9,751.2,922.7,744.4,924.2,744.8z"/>
			<polygon fill="#1E1313" points="965.6,466.1 927.5,464.1 934.6,472.1 960,470.4 			"/>
			<path fill="#F3B78E" d="M933.7,472.5c0,6.1,5.9,11.1,13.2,11.1l0,0c7.3,0,13.2-5,13.2-11.1v-17.1c0-6.1-5.9-11.1-13.2-11.1l0,0
				c-7.3,0-13.2,5-13.2,11.1V472.5z"/>
			<path fill="#0B090A" d="M927.5,361.7c10.1,2.1-17,28.7-15.1,30.7c1.9,2-10.1,2.9-12.7-2.9C897.1,383.7,893.2,354.7,927.5,361.7z"
				/>
			<path opacity="0.1" fill="#6E5857" d="M929.1,361.7c10.1,2.1-17,28.7-15.1,30.7c1.9,2-10.1,2.9-12.7-2.9
				C898.7,383.7,894.8,354.7,929.1,361.7z"/>
			<path fill="#F3B78E" d="M896,430.8c2.6,0.7,5.1,1.5,7.1,2.2c0.9,2.4,2.1,4.7,3.4,6.9c0.7,1.2,1.5,2.4,2.4,3.5
				c5.7,7.7,13.6,13.1,21.6,13.6c3.3,0.2,6.6-0.4,9.7-2c23.6-11.8,23.5-18.1,23.5-40.8c0-22.6-10.2-40.9-30.2-40.9
				c-13.4,0-23.6,10.1-28.9,23.5c-2.3,5.8-3.7,12.2-4,18.7c-0.4,0.1-0.7,0.5-0.9,1.3C898.5,420.6,888.6,428.9,896,430.8z"/>
			<path opacity="0.3" fill="#130F10" d="M910.8,395c0,0,19.4,8.4,35.4,9.8c1.1,0.1,1.3,10.5,2.4,10.5c1,0,2.7-10.2,3.6-10
				c11.3,2.3,10.4,16.8,3,16.5c-2.9-0.1-6.8,19.3-7.1,25.7c-0.2,3.9,21,9.7,26.7,4.4c5.7-5.3,30-70.8,2.9-86.7
				c-10.9-6.4-50.9-7.9-62.5-6.8C900.1,359.5,898.5,377.8,910.8,395z"/>
			<path fill="#130F10" d="M911.1,394.1c0,0,20.3,7.6,36.4,9.7c0.8,0.1,0.5,10.4,1.2,10.4c0.6,0.1,2.2-10,2.8-9.9
				c14.5,2.6,11.5,18.9,3.8,18.6c-2.9-0.1-6,17.6-7,23.6c-1,6.2,21.8,10.7,27.6,5.4c5.7-5.3,29.1-71.8,2-87.7
				c-10.9-6.4-50.9-7.9-62.5-6.8C900.4,358.7,898.8,376.9,911.1,394.1z"/>
			<path fill="#2C1B1B" d="M904.2,475.6c5.6,1.8,11.3,8.2,12.3,11.6c0.4,3.3-0.1,4.8-0.1,8.6l-1.6,79.3c0,13.6,8.8,24.6,19.6,24.6
				H958c9.4,0,15.9-7.8,17.3-18.8c0.2-1.6,0.3-3.2,0.3-4.9l1.9-80.1c0-2.8-0.4-5.5-1-8l0.9,0.7c0,0,1.8-11.2,9.8-11.9
				c2.5-0.2-12.3-3.3-12.3-3.3l-3.7,4.1c-2-2.1-3.2-3.7-5-4.5c-1.2-0.6-2.5-0.9-4.4-0.9l-7.5,4.6l-8.5,5.2l-1.8,1.1l-12.5-10.5
				c-5,0-6.7,1.4-10,5.3l-5.5-6.4C915.9,471.2,900.8,474.5,904.2,475.6z"/>
			<path fill="#F3B78E" d="M935.1,723.9c0,7.9-0.4,14.4,5.1,14.4l0,0c5.5,0,5.3-6.9,5.3-14.8l4.7-83.3c0-7.9-4.5-14.3-9.9-14.3l0,0
				c-5.5,0-10,6.4-10,14.3L935.1,723.9z"/>
			<path fill="#F3B78E" d="M908,723.3c0.7,7.9,0.8,13.4,6.3,13l0,0c5.5-0.5,6-6.3,5.3-14.3l-3.5-85c-0.7-7.9-5.6-14-11.1-13.5l0,0
				c-5.5,0.4-9.4,7.2-8.7,15.2L908,723.3z"/>
			<path fill="#402827" d="M927.5,464.1l16.4,18.7c0,0-9.7,3.4-13,9.2c-3.3,5.9-15.1-20.8-15.1-20.8L927.5,464.1z"/>
			<path fill="#211414" d="M879.9,625.8c6.8,18.3,54.2,22.6,66.9,20.2c1.8-0.3,3.5-0.7,5.1-1.2c43.7-12.4,26.1-69.3,23.7-68.8
				c-15.1,3.2-51.4,12.7-60,2.8c-0.3-0.3-0.5-0.6-0.7-0.9C914.9,577.9,874.2,610.5,879.9,625.8z"/>
			<path fill="#0B090A" d="M919.8,411.9c0,0-7.4-4.8-10.3-5c-3.5-0.2-4.2,2-4.2,2s2.2-0.4,4.2,0c2.1,0.4,7.5,3.5,8.3,4.1
				c1.2,0.9,3.8,0.6,2.2-0.9"/>
			<path fill="#CE4885" d="M906.5,439.9c0.7,1.2,1.5,2.4,2.4,3.5c7-1.4,13.1-3.5,13-6C921.8,437.4,914.3,438.9,906.5,439.9z"/>
			<circle fill="#0B090A" cx="909.4" cy="414.3" r="3"/>
			<path fill="#C39372" d="M952.8,406.7c0,0,7.3,3,5.6,7.5c-1.7,4.5-3.5,7.2-5.9,6.5C947.7,419.3,952.8,406.7,952.8,406.7z"/>
			<path opacity="0.1" fill="#6E5857" d="M914.8,390.8c0,0,18.2,6.9,32.7,8.7c0.7,0.1,1.1,7.3,1.8,7.3c0.6,0.1,1.3-7,1.8-6.9
				c13,2.4,19.4,21.1,12.5,20.8c-2.6-0.1-5.6,17.7-6.4,23.1c-0.9,5.5,14.4,7.2,15.9-1.2c1.2-6.9,26.2-64.4,1.8-78.8
				c-9.7-5.7-45.7-7.1-56.1-6.1C905.2,359,903.7,375.4,914.8,390.8z"/>
			<path opacity="0.56" fill="#2C1B1B"  a:adobe-blending-mode="multiply" d="M943.9,483.6v98.6c0,0,17.3,2.9,31.4-1.3
				c0.2-1.6,0.3-3.2,0.3-4.9l1.9-80.1c0-2.8-0.4-5.5-1-8l0.9,0.7c0,0,1.8-11.2,9.8-11.9c2.5-0.2-12.3-3.3-12.3-3.3l-3.7,4.1
				c-2-2.1-3.2-3.7-5-4.5c-4.3,1-8.5,2.3-11.9,3.7c-4,1.6-7.1,3.4-8.5,5.2c-0.3,0.3-0.5,0.7-0.7,1.1L943.9,483.6z"/>
			<path fill="#F3B78E" d="M906.1,488.4c4.5-1.1,9,1.7,10.1,6.2l8.9,39.5c0,0.1,0.5,1.5,0.5,1.6l32.9,50.1c1.9,2.5,3.5,4.7,4.5,6.5
				c1.8,1.9,3.8,3.6,5.1,3.6c3.1,0,2.8,1.6,1.8,2.4c-1.1,0.9-2.2,0.9-2.2,0.9s3.1,3.7,6.2,3.5c3.1-0.2,0.5,6.7-3.3,6.9
				c-3.8,0.2-9.1-1.7-12.4-5.5c-2.4-2.7-4.5-6.6-5.4-9.6c-0.9-0.8-1.7-1.8-2.5-2.8l-37.9-46.7c-1.8-2.3-2.8-4.8-3.2-7.1l-6.1-40.3
				C902.1,493.1,901.6,489.5,906.1,488.4z"/>
			<path fill="#F0C4C4" d="M903.7,475.2c0,0-3.4,39.3-1.3,46.7c1.3,4.6,23.2,5.5,23.2,5.5s-1.9-23.8-9.3-40.5
				C913.6,480.7,909.5,477.5,903.7,475.2z"/>
			<path fill="#F3B78E" d="M921.3,613.2c3.2-0.5,8.1-5.3,8-7.9c0-0.9-2.4,1.4-3.6,0.2c-1.5-1.5,6.3-6.1,6.3-6.1
				c0.1-0.1,0.1-0.1,0.2-0.1c0.3-0.4,0.5-0.8,0.9-1.2l32.8-50.4c0-0.1,0-0.2,0-0.3l9.5-39.9c1.1-4.5,5.6-7.3,10.1-6.2
				c4.5,1.1,7.3,5.6,6.2,10.1l-9.4,39.4c-0.4,2.4-1.4,4.8-3.2,7.1l-39,49c0,0-0.1,0.1-0.1,0.1c-0.7,4.9-7,10-11.6,10.5
				C925.6,617.9,919.1,613.5,921.3,613.2z"/>
			<path fill="#F0C4C4" d="M985.2,476.2c6.1-2.2,11.2,7.8,11.7,13.8c1,12-2.7,29.8-4.8,40.2c-3.3,15.8-17.4,6.2-24.5,1.4
				C967.5,531.6,972.3,480.8,985.2,476.2z"/>
			<path fill="#4E5910" d="M966.2,593L966,699.2c0,15.3,5.5,23.8,23.1,23.8h71.5c17.6,0,31.8-12.4,31.8-27.7V589.4
				c0-8.5-19.5-21.7-37-21.7l-9.1-3.2l-65,0.3C963.7,564.8,966.2,577.7,966.2,593z"/>
			<path fill="#3B440E" d="M990.9,594.4v102c0,14.7-1.5,26.7,16.1,26.7h53.6c17.6,0,31.8-11.9,31.8-26.7v-102
				c0-14.7-14.2-26.7-31.8-26.7h-54.1C989,567.7,990.9,579.6,990.9,594.4z"/>
			<path fill="#402827" d="M965.6,466.1l-21.7,16.7c0,0,9,4.8,11.4,11.1c2.4,6.3,19.5-20.6,19.5-20.6L965.6,466.1z"/>
		</g>
		<g>
			<path fill="#151011" d="M869.6,709.8c-2.3-1.7-7-1.8-8.4,2.5c-1.5,4.3-11,9.1-15.2,2.9c-2.9-4.2-4.4-5.3-5.1-3.3
				c-2.1,6.4,2.1,13.4,1.9,20.9c0,1.3,1.9,3.1,3.2,3.4c11.9,2.9,65.3-7.5,65.3-7.5s0.7-4.3-2.4-7.1c-2.2-2-17-5-22.1-4.5
				C879.2,718.1,873.8,713,869.6,709.8z"/>
			<path fill="#2F2324" d="M843.2,736.6c0.9,2,2.7,3.3,4.2,3.1l62.5-8.1c1.5-0.2,2.2-1.3,1.9-2.4c-0.2-0.7-0.8-1.9-2.4-1.7
				l-62.5,8.1c-1.5,0.2-3.6-2.9-4.1-2.3C842.9,733.2,842.5,735.1,843.2,736.6z"/>
			<path fill="#F3B78E" d="M547.3,496.3c0.6-3.7,1.3-9.2,4-6.3c2.8,2.9,16.6,6.4,10.2,10.7c-5.1,3.5-9.4,7.8-10.4,6.6
				C549.8,505.7,546.3,502.4,547.3,496.3z"/>
			<path fill="#F3B78E" d="M670.7,612.7l7.2-1.9c0,0,17.9-1.6,20.7,1.9c2.7,3.4,6.6,16.2,4.1,17.1c-2.5,0.9-7.6-7.2-7.6-7.2
				s-17.2,6.2-21.8,4C668.6,624.5,664.3,612.7,670.7,612.7z"/>
			<polygon fill="#F3B78E" points="853.5,704 862.8,718.8 847.8,726.9 839.1,711.2 			"/>
			<path fill="#D84001" d="M632.9,646.2l0.3,6.2c0.4,7.5,10.3,13.1,22,12.4l1.4-0.1l63.5-3.6c0.2,0,0.5,0,0.7,0l73.7-4.2l41.1,55.2
				c3.7,5.7,9.5,4.8,14.3,2.7c1.6-0.7,3-1.6,4.3-2.4c3.6-2.3,4.9-6.9,0-14.5l-39.7-65.2c-2.2-3.4-5.3-5.9-8.4-7.2
				c-2.8-1.6-6.3-2.5-10.1-2.3l-40.1,2.3c-0.6,0-1.2,0-1.8,0l-100.9,5.8C641.6,632,632.5,638.6,632.9,646.2z"/>
			<path fill="#A25C33" d="M761.7,670.6c3-1.3,7,1.1,8.8,5.4l35.1,83c1.8,4.3,0.8,8.8-2.2,10.1l0,0c-3,1.3-7-1.1-8.8-5.4l-35.1-83
				C757.7,676.5,758.7,671.9,761.7,670.6L761.7,670.6z"/>
			<path opacity="0.6" fill="#AB2501" d="M654.3,650.8v13.9l63.5-3.6c0.2,0,0.5,0,0.7,0l73.7-4.2l41.1,55.2
				c3.7,5.7,9.5,4.8,14.3,2.7l-1.4-2.4l-47.1-66.8L654.3,650.8z"/>
			<path fill="#A25C33" d="M653.6,671.7c-3-1.3-6.9,1.1-8.7,5.4l-34.9,83c-1.8,4.3-0.8,8.8,2.2,10.1l0,0c3,1.3,6.9-1.1,8.7-5.4
				l34.9-83C657.6,677.5,656.6,673,653.6,671.7L653.6,671.7z"/>
			<path fill="#3D5C60" d="M542.8,549.6c8.2-8.4,28.3,0.5,37.9,9.7l76.4,71.6c9.6,9.3,10.7,23.6,2.5,32.1l-6.7,6.9
				c-8.2,8.4-22.6,7.7-32.1-1.5l-82.2-79.8c-9.6-9.3-10.7-23.6-2.5-32.1L542.8,549.6z"/>
			<path fill="#3B440E" d="M461.8,556.7l151.7,126.4c7.6,6.3,16.4,9.1,23.5,8c3.8-0.5,7-2.2,9.3-5c1.4-1.7,2.4-3.8,2.9-6.1
				c1.3-5.8-0.2-13-4.7-19c-1.9-2.6-4.4-5-7.4-7c-22.4-14.4-63.4-44.7-92.5-75.5c-30.6-32.4-48.7-64.9-48.7-64.9
				c-3-2.5-6.8-3.5-11-3.5c-12.2,0-27.4,8.5-32.2,14.4c-0.8,0.9-1.4,1.9-1.8,3C447.1,535.9,451.5,548.1,461.8,556.7z"/>
			<path fill="#3B440E" d="M624.8,676.7v0.1c0.1,6.5,5.1,12,12.1,14.2c2.2,0.7,4.7,1.1,7.2,1.1l136.7-1.6l1.7,0
				c2.7,0,5.2-0.5,7.5-1.3c6.8-2.5,11.5-8,11.4-14.4c-0.1-8.3-1.9-21.8-11.8-22.4c-0.3,0-0.5,0-0.8,0L644.4,661l-0.6,0
				c-9.2,0.1-16.8,5.5-18.6,12.5C624.9,674.5,624.8,675.6,624.8,676.7z"/>
			<path fill="#8D502C" d="M580.7,634.3c0.1,2.9,2.8,5.2,6,5.1l126.9-3.9c3.2-0.1,5.8-2.5,5.7-5.5l0,0c-0.1-2.9-2.8-5.2-6-5.1
				l-126.9,3.9C583.2,628.9,580.6,631.4,580.7,634.3L580.7,634.3z"/>
			<g>
				<path fill="#A25C33" d="M571.6,634.6c0.2,5.1,4.4,9.1,9.4,9c5.1-0.2,9-4.4,8.9-9.5c-0.2-5.1-4.4-9.1-9.4-9
					C575.4,625.2,571.4,629.5,571.6,634.6z"/>
				<path fill="#803D05" d="M575.5,634.5c0.1,2.9,2.5,5.2,5.4,5.1c2.9-0.1,5.1-2.5,5-5.4c-0.1-2.9-2.5-5.2-5.4-5.1
					C577.7,629.1,575.4,631.6,575.5,634.5z"/>
			</g>
			<path fill="#223A3E" d="M533.8,566.8c2.4,4.5,10.5,4.7,18.1,0.6c7.6-4.1,11.8-11.1,9.4-15.5c-2.4-4.5-10.5-4.7-18.1-0.6
				C535.6,555.4,531.4,562.3,533.8,566.8z"/>
			<path fill="#A25C33" d="M629.8,715.3c-0.2,3,2.3,5.5,5.6,5.7l147.3,9c3.3,0.2,6.1-2,6.3-5l0,0c0.2-3-2.3-5.5-5.6-5.7l-147.3-9
				C632.7,710.1,629.9,712.3,629.8,715.3L629.8,715.3z"/>
			<path fill="#F3B78E" d="M550,564.4c-5.5,4.2-12,4.9-14.6,1.6L522,548.4c-2.5-3.3-0.2-9.4,5.3-13.6l0,0c5.5-4.2,12-4.9,14.6-1.6
				l13.5,17.6C557.9,554.1,555.5,560.2,550,564.4L550,564.4z"/>
			<path fill="#F3B78E" d="M466.1,501.1c0,0,25,35.4,39.2,44.2c4.9,3.1,33,8.2,37.6,4.1l11.6-10.4c2.6-2.4,3.5-13.3,3.4-23.2
				c0-0.3,0-0.6,0-0.9c-0.1-6.8-0.7-12.9-1.6-15.1c-2.3-5.5-7.7-12.4-13.8-19.1c-0.2-0.3-0.5-0.5-0.8-0.8
				C529.9,467.5,516,456,516,456c-3.9-4.3-10.7-4.5-15.2-0.4l-33.5,30.3C462.7,490,462.2,496.8,466.1,501.1z"/>
			<path fill="#4B2305" d="M490.4,490c0,0,2.1,17.2,8.8,20.8c6.5,3.5,15,9.8,15,9.8s-10.2-8.2-16.2-0.5c-4,5.1,6.3,20.7,22.1,28.8
				c0,0-9.5,4.4-28.4-10.7c-35.1-27.9-38.7-41.9-14.5-48.9C501.5,482.4,488.5,488.6,490.4,490z"/>
			<path opacity="0.5" fill="#4B2305" d="M493.7,539.1c14.4,9.3,22.5,10.1,25.3,10c0.8,0,1.1-0.1,1.1-0.1
				c-11.1-6.4-23.3-22.5-20.1-28.1c4-7,13.8-0.1,14.7,0.5c-0.7-0.7-6.6-6.6-13.5-9.8c-5.8-2.7-8-15.8-8.7-19.7
				c13.3-8.2,27.6-21.3,31.9-29.6c2.5-4.8,6.4-7,6.2-8.8c-2.2-19.3-17.1-27-29-23c0,0,18.6,5.5,10.5,14
				c-3.5,3.6-58.2,31.9-45.2,51.8c-0.7,0.7-1.4,1.5-1.8,2.3C459.4,507.3,467.2,522,493.7,539.1z"/>
			<path fill="#3B440E" d="M768.1,673.9c0,0.8,0.2,1.5,0.6,2.1l3.4,4l8.8,10.5l41.2,49.1c3,5,9,7.1,14.3,5.2
				c0.8-0.3,1.6-0.6,2.3-1.1c3.8-2.3,5.9-6.3,5.9-10.4c0-2.1-0.6-4.3-1.7-6.2l-41.6-69c-2.5-4.1-7-6.2-11.5-5.8
				c-1.8,0.2-3.5,0.7-5.2,1.7C779.5,657.1,768.1,667.6,768.1,673.9z"/>
			<g>
				<path fill="#1F1A17" d="M866.6,708.6c-2.7-0.9-7.2,0.5-7.2,5.1c0,4.6-7.6,12.1-13.5,7.6c-4.1-3.1-5.8-3.6-5.8-1.5
					c0,6.7,6.2,12,8.4,19.2c0.4,1.3,2.7,2.4,4.1,2.2c12.2-1,59.5-27.8,59.5-27.8s-0.7-4.3-4.5-5.9c-2.8-1.2-17.7,0.6-22.4,2.8
					C878.4,713.4,871.7,710.3,866.6,708.6z"/>
				<path fill="#3D2D2E" d="M850.1,742.3c1.5,1.6,3.6,2.2,5,1.6l56.8-27.5c1.4-0.7,1.6-1.9,1-2.9c-0.4-0.6-1.4-1.5-2.8-0.9
					l-56.8,27.5c-1.4,0.7-4.3-1.6-4.6-0.8C848.7,739.3,849,741.2,850.1,742.3z"/>
			</g>
			<path fill="#59827C" d="M552.5,577c3-3.2,10.2-6.1,12.1-4.4l35.8,39.3h65.1c3.2,0,5.8,2.4,5.8,6.8c0,4.4-0.6,7.6-3.8,7.6
				l-71.4,2.2c-5.1,0.6-45.6-42.6-45.6-42.6C548.6,584.2,549.5,580.2,552.5,577z"/>
			<path fill="#4B2305" d="M463.2,497c3.7,5.1,13.4,2,24.4-4.4c20-11.8,44.1-35.1,43.5-41c-1.8-16.1-15.2-25.4-26.8-23.6
				c-2.4,0.4-4.6,1.2-6.7,2.5c0,0,18.6,5.5,10.5,14C504.5,448.2,448.5,477,463.2,497z"/>
			<polygon fill="#080607" points="536.8,482.1 537.9,483.7 523.3,493.3 526.5,486.4 			"/>
			<path fill="#C39372" d="M546.7,525.7c0,0,2.1-2.8,5.3-4.3c1.6-0.8,3.9-1.7,5.3-2.3c-0.1-0.3-0.2-0.6-0.3-0.8
				c-1.7,0.1-6.5,0.6-8.4,2.5C546.4,523,546.7,525.7,546.7,525.7z"/>
			<path fill="#080607" d="M539.3,487.7c-0.8,2.3-2.1,4-4.2,5.3c-1.7,1-5.1,0.8-6.2,1.8c3.5,0.2,13.9-1,10.2-7.1"/>
			<path fill="#FFFFFF" d="M548.1,361.9c0-33-51.9-59.8-116-59.8c-64,0-116,26.8-116,59.8c0,33,51.9,59.7,116,59.7
				c1.8,0,3.6,0,5.4-0.1l25.3,35.2l-5.4-36.6C509.3,414.2,548.1,390.4,548.1,361.9z"/>
			<path opacity="0.3" fill="#8F530A" d="M492.6,537.3c12,8.5,18.9,9.5,21.3,9.5c-0.9-0.5-2.3-1.2-4-1.6c-3-0.7-15.8-14.9-17-20.6
				c-1.2-5.7,7.2-8.3,7.2-8.3s-6-2.9-9.6-5.7c-2.6-2-2.3-8.2-1.4-13.5c-8.3,4.4-15.8,6.7-19.6,4.3
				C464.4,508.7,470.5,521.6,492.6,537.3z"/>
			<path opacity="0.3" fill="#8F530A" d="M469.6,491.6c3.4,4.6,12.3,1.9,22.2-4c0.2-2.2,0.5-4.3,0.8-5.9c1-6,25.7-26.4,28-29.9
				c2.4-3.5-1.7-15-1.7-15c-4.7-4.9-8.7-7.3-12-8.2c-2.2,0.3-4.2,1.1-6.1,2.2c0,0,17,5,9.6,12.8
				C507.3,447.1,456.2,473.4,469.6,491.6z"/>
			<path fill="#C39372" d="M508.6,520.1c0,0-10.2,0.8-6.5,7.5c3.7,6.7,15.2,11.9,14,7.2C514.8,530,511,519.6,508.6,520.1z"/>
			<path opacity="0.4" fill="#ED363D" d="M461.8,556.7l151.7,126.4c7.6,6.3,16.4,9.1,23.5,8c2.2,0.7,4.7,1.1,7.2,1.1l136.7-1.6
				l41.2,49.1c3,5,9,7.1,14.3,5.2l-46.2-55.7l-7.6-9.1H632.9l-7.7-6.4L450.7,527.7C447.1,535.9,451.5,548.1,461.8,556.7z"/>
			<path d="M480.8,402.1c-4.6,0-9-0.9-12.6-2c-5.6-1.7-11-4-15.9-7.1c-3.9,3.1-8.6,5.4-13.5,6.6l-0.2,0.4l-0.3,0
				c-0.6,0-1.2,0.1-1.8,0.1c-4.9,0.9-9.9,0.8-14.7-0.5c-1.4-0.4-2.9-0.9-4.1-1.9c-0.7-0.2-1.4-0.4-2.1-0.6c-0.2,0.8-0.4,1.6-0.6,2.5
				L415,400l-30.6,0.1c-3.1,0-6.4-0.2-8.6-2.3c-2.5-2.5-2.3-6.5-1.8-10l0.4-3c-0.5-0.5-1-1.2-1.5-1.8c-0.5-0.1-0.9-0.1-1.4-0.3
				c-8.7-2.3-9.1-14.1-8.5-21c0.1-1.6,0.3-3.2,0.6-4.8l-1.2,0l0-1l1.5-0.1c0.6-2.3,1.5-4.3,3.2-5.9c2.7-2.5,6.6-3,10.7-3.3l20.1-1.5
				c2.9-0.2,6.4-0.5,9.4,1.1c2.6,1.4,4.1,3.8,5,6.6c0.5,0,1.1,0.1,1.6,0.2c-1.1-4.1-2.6-8.1-4.3-12l-0.2-0.6l0.6-0.1
				c12.6-2.8,25.4-4.3,34.6,1.8c3.7-0.8,7.4-1.6,11.2-2.1c9.4-1.1,17.2,0.3,23.1,4.1c0.4,0.3,0.8,0.5,1.2,0.8
				c5.7,1.2,10.8,3.9,14.6,8.7c4.4,5.6,5.8,12.5,5.2,19.5c0.6,0.6,1.2,1.3,1.8,2.1c2.1,3.1,2.8,7.1,1.8,11.2
				c-1.1,5-4.5,9.7-8.8,12.3C490.2,401.2,485.4,402.1,480.8,402.1z M453.1,392.3c4.8,3,10,5.2,15.4,6.8c7,2.1,17.2,3.5,25.5-1.4
				c4.1-2.4,7.3-6.9,8.4-11.6c0.9-3.8,0.3-7.6-1.7-10.4c-0.3-0.5-0.7-0.9-1.1-1.4c-0.9,7.1-3.8,14.3-7.7,20.2l-0.1,0.2l-0.2,0
				c-12,3-25,1.1-35.8-4.9C455,390.7,454.1,391.5,453.1,392.3z M418.3,396.9c5.9,1.7,12.1,2.5,18.2,2.3c0.6-0.1,1.1-0.2,1.7-0.4
				l6.3-12.6c-8.9,1.3-17,1-24.4-0.9c-0.8,0.6-1.7,1-2.6,1.4c-0.3,2.4-0.6,4.7-1.1,7c0.3,1.1,0.8,2,1.6,2.8
				C418.1,396.7,418.1,396.8,418.3,396.9z M375.3,385.5l-0.3,2.4c-0.4,3.3-0.7,6.9,1.6,9.1c1.9,1.9,4.9,2,7.9,2l29.8-0.1
				c0.2-0.7,0.4-1.4,0.5-2.1c-5.9-2-11.4-4.9-16.4-8.5l-10.4,0C384.1,388.4,379,388.4,375.3,385.5
				C375.3,385.6,375.3,385.5,375.3,385.5z M445.7,386l-6.3,12.4c4.3-1.2,8.4-3.2,12-6c-1.5-1-3-2-4.5-3.2l-0.2-0.1l0-0.2
				c-0.2-1-0.3-2-0.4-3C446.2,386,446,386,445.7,386z M415.9,396.2c0.2,0.1,0.4,0.1,0.6,0.2c-0.2-0.2-0.3-0.5-0.4-0.8
				C416,395.8,415.9,396,415.9,396.2z M400,388.3c4.6,3.2,9.6,5.7,14.9,7.5c0.1-0.7,0.3-1.3,0.4-2c-0.3-1.3-0.5-2.6-0.6-4l-0.2-2.2
				c-3,0.7-6.1,0.7-8.7,0.7L400,388.3z M456.5,389c10.5,5.8,23.1,7.6,34.7,4.8c3.9-6,6.8-13.2,7.6-20.4c-3.5-3.3-8.6-4.6-13.1-5.3
				c-3.5,5.4-10,8.7-15.7,10.9c-3.1,1.2-6,2.3-8.9,3.3c-1,2.1-2.3,4.1-3.8,5.9C457,388.5,456.7,388.8,456.5,389z M447.7,388.6
				c1.5,1.1,3,2.2,4.5,3.2c0.9-0.8,1.8-1.6,2.7-2.5c-2-1.2-3.9-2.5-5.7-3.9c-0.6,0.1-1.2,0.2-1.8,0.4
				C447.5,386.7,447.6,387.7,447.7,388.6z M415.6,387.4l0.2,2.3c0,0.4,0.1,0.8,0.1,1.2c0.2-1.3,0.4-2.6,0.5-3.8
				C416.2,387.2,415.9,387.3,415.6,387.4z M450.5,385.1c1.6,1.3,3.3,2.4,5.1,3.4c0.3-0.3,0.6-0.7,0.8-1c1.2-1.5,2.3-3.2,3.2-4.9
				C456.5,383.7,453.5,384.5,450.5,385.1z M375.4,384.4c0.2,0.1,0.3,0.3,0.5,0.4c3.1,2.4,7.4,2.6,12,2.6l9.1,0
				c-2.5-1.9-4.8-4-6.9-6.3l-11.8,1.5c-0.9,0.1-1.8,0.2-2.7,0.3L375.4,384.4z M391.3,380.9c2.3,2.3,4.7,4.5,7.4,6.4l7.3,0
				c3.1,0,6-0.1,8.6-0.7l-0.2-3.1c-2.2-0.8-4.4-1.8-6.5-2.7c-1.2-0.5-2.3-1-3.5-1.6c-1.6,0.2-3.2,0.4-4.7,0.6L391.3,380.9z
				 M415.4,383.9l0.2,2.5c0.3-0.1,0.7-0.2,1-0.3c0.1-0.6,0.1-1.1,0.2-1.7c-0.2-0.1-0.4-0.1-0.6-0.2
				C415.9,384.1,415.6,384,415.4,383.9z M421.1,384.6c7.3,1.7,15.3,1.9,24,0.6l1.2-2.3c-0.3-0.3-0.6-0.6-0.9-0.9
				c-3-3-5.8-6.6-8.5-10c-1.2-1.5-2.4-3-3.6-4.5c-2,1.6-4.1,3.2-6.3,4.6C426,376.7,424.7,381.4,421.1,384.6z M417.7,384.7
				c0,0.3-0.1,0.6-0.1,1c0.4-0.2,0.8-0.4,1.2-0.6C418.4,384.9,418.1,384.8,417.7,384.7z M447.3,383.7c0,0.3,0,0.7,0.1,1
				c0.3-0.1,0.6-0.1,0.9-0.2C447.9,384.3,447.6,384,447.3,383.7z M447.5,382.6c0.7,0.6,1.3,1.2,2,1.8c3.5-0.7,7.1-1.7,10.8-2.9
				c2.1-4.4,3.3-9.4,3.4-14.3c-0.6,0-1.2,0.1-1.8,0.1c-2.1,0.1-4.1,0.3-5.8,1.3c-1.8,1.1-3,3-4,4.9c2.2,1.4,4.5,2.6,7,3.4l-0.3,1
				c-2.6-0.8-4.9-2-7.1-3.4c0,0.1-0.1,0.1-0.1,0.2L447.5,382.6z M417.8,383.6c0.7,0.2,1.4,0.4,2.1,0.6c3.5-2.7,4.9-6.9,5.9-11.5
				c-0.8,0.5-1.6,0.9-2.4,1.3c-1.7,0.9-3.5,1.6-5.3,2.2C418.1,378.7,418,381.2,417.8,383.6z M374.1,383c0.1,0.2,0.3,0.3,0.4,0.5
				l0.1-0.5C374.4,383,374.3,383,374.1,383z M415.3,382.8c0.4,0.2,0.8,0.3,1.2,0.4c0.1,0,0.2,0.1,0.3,0.1c0.2-2.3,0.3-4.5,0.3-6.8
				c-0.7,0.2-1.5,0.4-2.2,0.6L415.3,382.8z M406.2,378.9c0.7,0.3,1.4,0.6,2.1,0.9c1.9,0.9,3.9,1.8,6,2.6l-0.4-5
				C411.3,378.1,408.8,378.5,406.2,378.9z M373.5,382c0.4,0,0.8,0,1.3,0l0.4-3.2c0.2-1.7,0.6-3.6,2-4.5c1.2-0.8,2.7-0.7,3.8-0.6
				c1.2,0.1,2.4,0.1,3.6,0.2c-1.4-2.5-2.2-4.9-2.5-7.3c-0.4-3.7,0.8-8.2,3.7-11l-12.6,0.8l0,0.2c0.2,3.2-0.4,6.3-0.9,9.4
				c-0.3,1.9-0.6,3.8-0.8,5.7C371.4,373.6,371.3,378.3,373.5,382z M379.9,374.5c-0.8,0-1.6,0.1-2.2,0.5c-1.1,0.8-1.4,2.3-1.6,3.9
				l-0.4,3.1c0.8-0.1,1.6-0.2,2.4-0.3l11.1-1.5c-1.7-1.8-3-3.6-4.1-5.4c-1.4-0.1-2.8-0.2-4.2-0.3
				C380.5,374.5,380.2,374.5,379.9,374.5z M364.6,356.8c-0.3,1.5-0.5,3.2-0.6,4.9c-0.5,6.6-0.2,17.9,7.8,20c0.2,0,0.4,0.1,0.5,0.1
				c-1.4-2.8-2-6.4-1.7-10.5c0.2-1.9,0.5-3.9,0.8-5.8c0.5-2.9,1-5.8,0.9-8.7L364.6,356.8z M434,366.8c1.2,1.5,2.4,3,3.6,4.5
				c2.7,3.4,5.4,6.9,8.4,9.9c0.1,0.1,0.1,0.1,0.2,0.2c0-3.5,0.4-7,1.1-10.4c-1.7-1.5-3.4-3-5-4.5c-1.3-1.2-2.6-2.4-3.9-3.5
				C437,364.2,435.5,365.5,434,366.8z M464.7,367.1c-0.1,4.8-1.1,9.6-3.1,13.9c2.6-0.9,5.3-1.8,8-2.9c5.3-2.1,11.6-5.2,15-10.2
				c-0.6-0.1-1.3-0.2-1.9-0.2C476.7,367.1,470.7,366.9,464.7,367.1z M448.2,371.7c-0.6,3-0.9,6-1,9.1l3.4-6.8
				c0.1-0.1,0.1-0.2,0.2-0.3C449.9,373.1,449.1,372.4,448.2,371.7z M386.3,374.9c1,1.6,2.3,3.2,3.8,4.8c0.1,0.1,0.2,0.2,0.3,0.3
				l9-1.2c1-0.1,2-0.3,3.1-0.4c-1.7-0.7-3.3-1.3-5-1.7C393.9,375.7,390.1,375.2,386.3,374.9z M385.7,373.9c4,0.3,8.1,0.8,12.1,1.9
				c2.3,0.6,4.5,1.5,6.7,2.4c3.1-0.5,6.3-1,9.3-1.8l-1.2-15.6c-0.2-2.3-0.5-4.7-1.1-6.9c-1.8,0.1-3.5,0.2-5.2,0.3l-18.9,1.1
				c-3.3,2.4-4.9,7.1-4.5,11C383.3,368.8,384.2,371.3,385.7,373.9z M412.6,353.9c0.6,2.2,0.9,4.6,1,6.8l1.2,15.4
				c0.8-0.2,1.5-0.4,2.3-0.7c-0.1-7.3-1.1-14.5-2.9-21.6c-0.1,0-0.2,0-0.2,0C413.4,353.9,413,353.9,412.6,353.9z M415.2,354.1
				c1.8,6.9,2.7,14,2.9,21c1.7-0.6,3.3-1.2,4.9-2c1.1-0.5,2.1-1.1,3.1-1.7c0.1-0.4,0.2-0.9,0.3-1.4c0.6-2.7,1.1-5.4,2.1-8
				C424.6,358.2,420.4,355.2,415.2,354.1z M448.5,370.6c0.9,0.8,1.9,1.5,2.8,2.2c1-1.9,2.3-3.9,4.3-5.1c1.9-1.1,4.1-1.3,6.3-1.4
				c0.6,0,1.2-0.1,1.8-0.1c0-5-1.1-9.9-3.3-14.3c-1.5-1-3.2-1.7-5-2.2c-1.1,0.6-2.2,1.2-3.3,1.9c-0.3,0.2-0.6,0.4-0.9,0.6
				c2.3,3.6,0.6,8.1-0.8,12.1l-0.3,0.8C449.5,366.9,448.9,368.7,448.5,370.6z M486.2,367.2c4.3,0.7,9.1,2,12.7,5
				c0.4-6.5-1-12.9-5.1-18.1c-3.2-4-7.4-6.5-12.1-7.9c5.3,5,7.7,12.4,5.6,18.6C486.9,365.6,486.6,366.4,486.2,367.2z M429.2,362.8
				c-0.8,2.4-1.4,4.9-1.9,7.4c0,0.1-0.1,0.3-0.1,0.4c1.9-1.2,3.6-2.6,5.4-4C431.5,365.3,430.4,364,429.2,362.8z M439.2,362.3
				c1.3,1.1,2.6,2.3,3.8,3.5c1.5,1.4,3,2.8,4.6,4.2c0.4-1.8,0.9-3.5,1.6-5.2l0.3-0.8c1.4-3.7,2.9-8,0.9-11.2
				c-3.6,2.6-7,5.7-10.3,8.7C439.8,361.7,439.5,362,439.2,362.3z M469.1,366c4.6,0,9.1,0.2,13.7,0.7c0.7,0.1,1.5,0.2,2.3,0.3
				c0.5-0.8,0.9-1.6,1.2-2.5c2.2-6.3-0.7-14.1-6.8-18.8c-7.4-1.5-15.8-0.1-22.8,3.2c1.5,0.5,3,1.2,4.4,2.1l0.1,0.1l0.1,0.1
				c2.3,4.6,3.4,9.7,3.5,14.8C466.2,366,467.7,366,469.1,366z M429.6,361.8c1.3,1.3,2.6,2.8,3.8,4.2c1.5-1.2,2.9-2.5,4.3-3.8
				c-1.9-1.6-3.9-3.1-6-4.4c-0.8,1.1-1.4,2.2-1.9,3.4C429.7,361.5,429.7,361.7,429.6,361.8z M432.3,357.1c2.2,1.3,4.2,2.8,6.1,4.5
				c0.3-0.3,0.7-0.6,1-0.9c3.3-3,6.7-6.1,10.4-8.8c-0.3-0.4-0.7-0.9-1.1-1.3c-0.4-0.5-0.9-1-1.3-1.6c-1.5,0.2-2.9,0.5-4.4,0.9
				C438.6,351.3,434.9,353.8,432.3,357.1z M418.4,354c4,1.5,7.4,4,10.5,7c0,0,0-0.1,0-0.1c0.5-1.2,1.2-2.4,2-3.5
				c-0.8-0.4-1.6-0.9-2.5-1.2C425.2,354.9,421.8,354.3,418.4,354z M414.9,352.9c4.7,0,9.4,0.6,13.9,2.4c0.9,0.4,1.8,0.8,2.7,1.3
				c2.7-3.5,6.7-6.2,11.3-7.6c1.3-0.4,2.7-0.7,4.1-0.9c-0.6-1.1-0.9-2.2-0.3-3.3c-0.7-0.6-1.4-1.2-2.2-1.7c-0.6,0.1-1.2,0.3-1.8,0.4
				c-3.2,0.7-6.5,1.5-9.8,2c-6.4,1.1-12.9,1.4-18.4,1.6l0-1c5.5-0.2,12-0.6,18.3-1.6c3.3-0.5,6.5-1.3,9.7-2c0.3-0.1,0.6-0.1,0.8-0.2
				c-8.7-5.2-20.6-3.8-32.5-1.2C412.4,344.9,413.8,348.9,414.9,352.9z M401.2,345.8c-1.1,0-2.3,0.1-3.3,0.2l-20.1,1.5
				c-3.9,0.3-7.6,0.8-10.1,3.1c-1.5,1.3-2.3,3.1-2.8,5.1l22.3-1.3c0.7-0.5,1.5-0.9,2.3-1.1c2.4-0.8,5-0.6,7.6-0.4
				c0.8,0.1,1.6,0.1,2.4,0.2c2,0.1,4.1,0,6.1-0.2c1.9-0.1,3.8-0.2,5.7-0.2c-0.9-2.5-2.2-4.5-4.4-5.7
				C405.1,346,403.1,345.8,401.2,345.8z M393.5,353.6c-1.3,0-2.5,0.1-3.7,0.5c0,0-0.1,0-0.1,0l6.8-0.4
				C395.4,353.7,394.4,353.6,393.5,353.6z M448.6,348.9c0.3,0.3,0.5,0.7,0.8,1c0.4,0.5,0.8,0.9,1.2,1.4c0.3-0.2,0.6-0.4,0.9-0.6
				c0.8-0.5,1.6-1,2.4-1.4C452.2,348.9,450.4,348.8,448.6,348.9z M449.9,347.9c1.8,0,3.6,0.2,5.4,0.7c6.8-3.4,14.9-5.1,22.3-4.1
				c-5.6-3.4-12.9-4.5-21.7-3.5c-3.4,0.4-6.8,1.1-10.2,1.8c0.6,0.5,1.3,1,1.9,1.6l0.3,0.3l-0.2,0.3c-0.6,0.9-0.4,1.9,0.4,3
				C448.6,347.9,449.3,347.9,449.9,347.9z"/>
		</g>
	</g>
</g>
</svg>
